<svg width="22" height="23" viewBox="0 0 22 23" fill="none" xmlns="http://www.w3.org/2000/svg">
<path d="M17.1321 12.0628C17.3417 11.8523 17.4593 11.5674 17.4593 11.2704C17.4593 10.9733 17.3417 10.6884 17.1321 10.4779L12.6502 5.99595C12.5461 5.89189 12.4226 5.80935 12.2866 5.75303C12.1506 5.69671 12.0049 5.66772 11.8577 5.66772C11.5605 5.66772 11.2755 5.78579 11.0653 5.99595C10.8552 6.20611 10.7371 6.49115 10.7371 6.78837C10.7371 7.08558 10.8552 7.37062 11.0653 7.58078L13.6344 10.1499L5.58297 10.1499C5.2858 10.1499 5.00079 10.2679 4.79066 10.478C4.58052 10.6882 4.46247 10.9732 4.46247 11.2703C4.46247 11.5675 4.58052 11.8525 4.79066 12.0627C5.00079 12.2728 5.2858 12.3908 5.58297 12.3908L13.6344 12.3908L11.0653 14.9599C10.9613 15.064 10.8787 15.1875 10.8224 15.3235C10.7661 15.4594 10.7371 15.6052 10.7371 15.7523C10.7371 15.8995 10.7661 16.0452 10.8224 16.1812C10.8787 16.3171 10.9613 16.4407 11.0653 16.5447C11.1694 16.6488 11.2929 16.7314 11.4289 16.7877C11.5649 16.844 11.7106 16.873 11.8577 16.873C12.0049 16.873 12.1506 16.844 12.2866 16.7877C12.4226 16.7314 12.5461 16.6488 12.6502 16.5447L17.1321 12.0628Z" fill="black"/>
</svg>
