<svg width="58" height="59" viewBox="0 0 58 59" fill="none" xmlns="http://www.w3.org/2000/svg">
<g clip-path="url(#clip0_306_104)">
<path d="M36.403 -1.7177C31.6891 2.99617 29.6636 16.2466 28.8645 23.9213C28.0654 16.2466 26.0399 2.99617 21.326 -1.7177C14.5314 -8.51231 3.59006 -9.01316 -2.85101 -2.57209C-9.29207 3.86897 -8.7949 14.8103 -1.99661 21.6049C2.71726 26.3188 15.9676 28.3443 23.6424 29.1434C15.9676 29.9426 2.71726 31.9681 -1.99661 36.6819C-8.79122 43.4765 -9.29207 54.4179 -2.85101 60.8589C3.59005 67.3 14.5314 66.8028 21.326 60.0045C26.0399 55.2907 28.0654 42.0403 28.8645 34.3655C29.6636 42.0403 31.6891 55.2907 36.403 60.0045C43.1976 66.7991 54.1389 67.3 60.58 60.8589C67.0211 54.4179 66.5239 43.4765 59.7256 36.6819C55.0117 31.9681 41.7614 29.9426 34.0866 29.1434C41.7614 28.3443 55.0117 26.3188 59.7256 21.6049C66.5239 14.8103 67.0211 3.86897 60.58 -2.56841C54.1426 -9.00947 43.2013 -8.51231 36.403 -1.7177Z" fill="#FFEA00"/>
<g clip-path="url(#clip1_306_104)">
<path d="M29.6431 29.3552C31.1392 29.015 35.0573 27.0649 36.7378 25.3844C38.7478 23.3756 38.9227 21.5477 37.9033 20.5284C36.884 19.509 35.0573 19.6851 33.0473 21.6939C31.3679 23.3732 29.4167 27.2925 29.0765 28.7886C28.7363 27.2925 26.7862 23.3744 25.1057 21.6939C23.0969 19.6851 21.269 19.5102 20.2509 20.5296C19.2315 21.5477 19.4064 23.3756 21.4164 25.3856C23.0957 27.0649 27.015 29.0162 28.5111 29.3564C27.015 29.6966 23.0969 31.6467 21.4164 33.3272C19.4064 35.3348 19.2315 37.1627 20.2509 38.182C21.2702 39.2014 23.0969 39.0253 25.1069 37.0165C26.7862 35.3372 28.7375 31.4179 29.0777 29.9218C29.4179 31.4179 31.368 35.336 33.0485 37.0165C35.0585 39.0253 36.8852 39.2014 37.9045 38.182C38.9239 37.1627 38.7478 35.336 36.739 33.326C35.0597 31.6467 31.1404 29.6954 29.6443 29.3552H29.6431Z" fill="#411393"/>
</g>
</g>
<defs>
<clipPath id="clip0_306_104">
<rect width="57.7318" height="57.7318" fill="white" transform="translate(57.7319 0.279068) rotate(90)"/>
</clipPath>
<clipPath id="clip1_306_104">
<rect width="18.8707" height="18.8707" fill="white" transform="translate(19.6411 19.92)"/>
</clipPath>
</defs>
</svg>
