<svg width="284" height="63" viewBox="0 0 284 63" fill="none" xmlns="http://www.w3.org/2000/svg">
<path d="M39.5731 31.7805C46.6788 31.7805 56.9697 35.3742 56.9697 46.9719C56.9697 55.6294 50.4358 62 32.6308 62H0.369479V1.56107H31.2423C47.9039 1.56107 53.9478 7.35994 53.9478 16.1808C53.9478 25.4099 47.6589 29.3303 38.7564 29.3303H34.7543V31.7805H39.5731ZM18.3378 49.7489H30.7523C35.7344 49.7489 39.0014 48.6054 39.0014 43.2149C39.0014 37.0077 35.7344 35.2109 30.7523 35.2109H18.3378V49.7489ZM18.3378 25.9H28.4654C32.8758 25.9 36.3878 24.5932 36.3878 19.6928C36.3878 14.5473 32.8758 13.4038 28.4654 13.4038H18.3378V25.9ZM83.1559 0.744326V62H65.5959V0.744326H83.1559ZM109.87 62.49C93.7799 62.49 92.8815 49.2588 92.8815 41.4998V19.5294H110.441V37.2527C110.441 45.0118 111.993 48.3604 116.322 48.3604C120.324 48.3604 122.529 45.3385 122.529 37.8244V19.5294H140.089V62H124.816C122.693 62 122.529 61.4283 122.529 60.7749C122.529 58.0796 129.063 53.4242 129.063 43.8683H127.103C127.103 50.4023 121.467 62.49 109.87 62.49ZM166.518 62.49C150.429 62.49 149.53 49.2588 149.53 41.4998V19.5294H167.09V37.2527C167.09 45.0118 168.642 48.3604 172.971 48.3604C176.973 48.3604 179.178 45.3385 179.178 37.8244V19.5294H196.738V62H181.465C179.341 62 179.178 61.4283 179.178 60.7749C179.178 58.0796 185.712 53.4242 185.712 43.8683H183.752C183.752 50.4023 178.116 62.49 166.518 62.49ZM236.955 41.2547C236.955 35.2109 234.995 32.4339 231.401 32.4339C227.236 32.4339 224.867 35.4559 224.867 42.9699V62H207.307V19.5294H222.662C224.704 19.5294 224.867 20.1011 224.867 20.7545C224.867 23.4498 218.333 27.7785 218.333 37.3344H220.293C220.293 30.8004 226.174 18.3043 238.588 18.3043C247.491 18.3043 251.003 23.5314 251.003 25.8183C251.003 28.5136 247.572 29.412 247.572 37.3344H249.533C249.533 29.9837 255.005 18.3043 267.419 18.3043C280.16 18.3043 283.346 28.2685 283.346 39.2946V62H265.786V41.2547C265.786 35.2109 263.417 32.4339 259.905 32.4339C256.802 32.4339 254.515 34.6391 254.515 42.1532V62H236.955V41.2547Z" fill="#261954"/>
</svg>
