<svg width="568" height="135" viewBox="0 0 568 135" fill="none" xmlns="http://www.w3.org/2000/svg">
<path d="M203.666 69.7199C214.078 69.7199 229.157 74.9857 229.157 91.9796C229.157 104.665 219.583 114 193.494 114H146.222V25.4399H191.459C215.873 25.4399 224.729 33.9369 224.729 46.8618C224.729 60.3852 215.514 66.1297 202.469 66.1297H196.605V69.7199H203.666ZM172.55 96.0486H190.741C198.041 96.0486 202.828 94.3732 202.828 86.4746C202.828 77.3792 198.041 74.7463 190.741 74.7463H172.55V96.0486ZM172.55 61.1033H187.39C193.853 61.1033 198.999 59.1885 198.999 52.0079C198.999 44.4683 193.853 42.7929 187.39 42.7929H172.55V61.1033ZM267.527 24.2431V114H241.797V24.2431H267.527ZM306.67 114.718C283.094 114.718 281.778 95.3306 281.778 83.9614V51.7686H307.508V77.7382C307.508 89.1074 309.782 94.0141 316.125 94.0141C321.989 94.0141 325.22 89.5861 325.22 78.5759V51.7686H350.951V114H328.571C325.46 114 325.22 113.162 325.22 112.205C325.22 108.256 334.794 101.434 334.794 87.432H331.922C331.922 97.006 323.664 114.718 306.67 114.718ZM389.677 114.718C366.101 114.718 364.784 95.3306 364.784 83.9614V51.7686H390.515V77.7382C390.515 89.1074 392.788 94.0141 399.131 94.0141C404.995 94.0141 408.227 89.5861 408.227 78.5759V51.7686H433.957V114H411.578C408.466 114 408.227 113.162 408.227 112.205C408.227 108.256 417.801 101.434 417.801 87.432H414.928C414.928 97.006 406.671 114.718 389.677 114.718ZM492.886 83.6023C492.886 74.7463 490.014 70.6773 484.748 70.6773C478.645 70.6773 475.174 75.1053 475.174 86.1155V114H449.444V51.7686H471.943C474.935 51.7686 475.174 52.6063 475.174 53.5637C475.174 57.513 465.6 63.8558 465.6 77.8579H468.472C468.472 68.2838 477.089 49.9734 495.28 49.9734C508.324 49.9734 513.47 57.6327 513.47 60.9836C513.47 64.9329 508.444 66.2493 508.444 77.8579H511.316C511.316 67.0871 519.334 49.9734 537.525 49.9734C556.195 49.9734 560.862 64.5739 560.862 80.7301V114H535.132V83.6023C535.132 74.7463 531.661 70.6773 526.515 70.6773C521.967 70.6773 518.616 73.9086 518.616 84.9188V114H492.886V83.6023Z" fill="white"/>
<g clip-path="url(#clip0_248_107)">
<path d="M74.3317 4.62163C64.7864 14.167 60.6848 40.9984 59.0666 56.5394C57.4484 40.9984 53.3469 14.167 43.8015 4.62163C30.0428 -9.13709 7.88715 -10.1513 -5.15567 2.89154C-18.1985 15.9344 -17.1918 38.09 -3.42557 51.8487C6.11977 61.3941 32.9511 65.4956 48.4922 67.1138C32.9511 68.7321 6.11977 72.8336 -3.42557 82.3789C-17.1843 96.1376 -18.1985 118.293 -5.15568 131.336C7.88715 144.379 30.0428 143.372 43.8015 129.606C53.3469 120.061 57.4484 93.2293 59.0666 77.6883C60.6848 93.2293 64.7864 120.061 74.3317 129.606C88.0904 143.365 110.246 144.379 123.289 131.336C136.332 118.293 135.325 96.1377 121.559 82.3789C112.013 72.8336 85.1821 68.7321 69.6411 67.1138C85.1821 65.4956 112.013 61.3941 121.559 51.8487C135.325 38.09 136.332 15.9344 123.289 2.899C110.254 -10.1438 88.0979 -9.13709 74.3317 4.62163Z" fill="#FFEA00"/>
<g clip-path="url(#clip1_248_107)">
<path d="M60.6429 67.5435C63.6724 66.8546 71.6064 62.9058 75.0094 59.5028C79.0795 55.4351 79.4336 51.7337 77.3695 49.6696C75.3053 47.6054 71.6064 47.962 67.5363 52.0297C64.1357 55.4303 60.1845 63.3667 59.4956 66.3962C58.8067 63.3667 54.8579 55.4327 51.4549 52.0297C47.3873 47.962 43.6859 47.6079 41.6241 49.672C39.56 51.7337 39.9141 55.4351 43.9842 59.5052C47.3848 62.9058 55.3212 66.857 58.3507 67.5459C55.3212 68.2348 47.3873 72.1836 43.9842 75.5866C39.9141 79.6518 39.56 83.3532 41.6241 85.4174C43.6883 87.4815 47.3873 87.1249 51.4573 83.0573C54.8579 79.6567 58.8092 71.7203 59.498 68.6908C60.1869 71.7203 64.1357 79.6542 67.5387 83.0573C71.6088 87.1249 75.3078 87.4815 77.3719 85.4174C79.4361 83.3532 79.0795 79.6542 75.0118 75.5842C71.6112 72.1836 63.6748 68.2323 60.6453 67.5435H60.6429Z" fill="#411393"/>
</g>
</g>
<defs>
<clipPath id="clip0_248_107">
<rect width="116.904" height="116.904" fill="white" transform="translate(117.521 8.66504) rotate(90)"/>
</clipPath>
<clipPath id="clip1_248_107">
<rect width="38.2121" height="38.2121" fill="white" transform="translate(40.3895 48.4375)"/>
</clipPath>
</defs>
</svg>
