<svg width="206" height="46" viewBox="0 0 206 46" fill="none" xmlns="http://www.w3.org/2000/svg">
<path d="M172.102 29.9884C172.102 25.615 170.683 23.6056 168.083 23.6056C165.069 23.6056 163.355 25.7923 163.355 31.2295V45H150.648V14.2677H161.759C163.237 14.2677 163.355 14.6814 163.355 15.1542C163.355 17.1045 158.627 20.2368 158.627 27.1516H160.045C160.045 22.4235 164.3 13.3811 173.284 13.3811C179.726 13.3811 182.267 17.1636 182.267 18.8184C182.267 20.7687 179.785 21.4188 179.785 27.1516H181.203C181.203 21.8325 185.163 13.3811 194.146 13.3811C203.366 13.3811 205.671 20.5914 205.671 28.57V45H192.964V29.9884C192.964 25.615 191.25 23.6056 188.709 23.6056C186.463 23.6056 184.808 25.2013 184.808 30.6385V45H172.102V29.9884Z" fill="white"/>
<path d="M121.133 45.3546C109.49 45.3546 108.84 35.7803 108.84 30.1657V14.2677H121.547V27.0925C121.547 32.7071 122.67 35.1302 125.802 35.1302C128.698 35.1302 130.294 32.9435 130.294 27.5062V14.2677H143V45H131.948C130.412 45 130.294 44.5863 130.294 44.1135C130.294 42.1632 135.022 38.7944 135.022 31.8797H133.603C133.603 36.6077 129.525 45.3546 121.133 45.3546Z" fill="white"/>
<path d="M80.1411 45.3546C68.4983 45.3546 67.8481 35.7803 67.8481 30.1657V14.2677H80.5548V27.0925C80.5548 32.7071 81.6777 35.1302 84.81 35.1302C87.706 35.1302 89.3017 32.9435 89.3017 27.5062V14.2677H102.008V45H90.9565C89.4199 45 89.3017 44.5863 89.3017 44.1135C89.3017 42.1632 94.0297 38.7944 94.0297 31.8797H92.6113C92.6113 36.6077 88.5334 45.3546 80.1411 45.3546Z" fill="white"/>
<path d="M60.8106 0.6745V45H48.104V0.6745H60.8106Z" fill="white"/>
<path d="M29.2735 23.1328C34.4152 23.1328 41.8619 25.7332 41.8619 34.1255C41.8619 40.3901 37.1339 45 24.2499 45H0.905151V1.26551H23.2452C35.3017 1.26551 39.6752 5.46166 39.6752 11.8445C39.6752 18.5229 35.1244 21.3597 28.6825 21.3597H25.7865V23.1328H29.2735ZM13.9073 36.1349H22.8906C26.4957 36.1349 28.8598 35.3075 28.8598 31.4068C28.8598 26.9152 26.4957 25.615 22.8906 25.615H13.9073V36.1349ZM13.9073 18.8775H21.2358C24.4272 18.8775 26.9685 17.9319 26.9685 14.3859C26.9685 10.6625 24.4272 9.8351 21.2358 9.8351H13.9073V18.8775Z" fill="white"/>
</svg>
