<svg width="388" height="92" viewBox="0 0 388 92" fill="none" xmlns="http://www.w3.org/2000/svg">
<path d="M138.573 46.7805C145.679 46.7805 155.97 50.3742 155.97 61.9719C155.97 70.6294 149.436 77 131.631 77H99.3695V16.5611H130.242C146.904 16.5611 152.948 22.3599 152.948 31.1808C152.948 40.4099 146.659 44.3303 137.756 44.3303H133.754V46.7805H138.573ZM117.338 64.7489H129.752C134.734 64.7489 138.001 63.6054 138.001 58.2149C138.001 52.0077 134.734 50.2109 129.752 50.2109H117.338V64.7489ZM117.338 40.9H127.465C131.876 40.9 135.388 39.5932 135.388 34.6928C135.388 29.5473 131.876 28.4038 127.465 28.4038H117.338V40.9ZM182.156 15.7443V77H164.596V15.7443H182.156ZM208.87 77.49C192.78 77.49 191.881 64.2588 191.881 56.4998V34.5294H209.441V52.2527C209.441 60.0118 210.993 63.3604 215.322 63.3604C219.324 63.3604 221.529 60.3385 221.529 52.8244V34.5294H239.089V77H223.816C221.693 77 221.529 76.4283 221.529 75.7749C221.529 73.0796 228.063 68.4242 228.063 58.8683H226.103C226.103 65.4023 220.467 77.49 208.87 77.49ZM265.518 77.49C249.429 77.49 248.53 64.2588 248.53 56.4998V34.5294H266.09V52.2527C266.09 60.0118 267.642 63.3604 271.971 63.3604C275.973 63.3604 278.178 60.3385 278.178 52.8244V34.5294H295.738V77H280.465C278.341 77 278.178 76.4283 278.178 75.7749C278.178 73.0796 284.712 68.4242 284.712 58.8683H282.752C282.752 65.4023 277.116 77.49 265.518 77.49ZM335.955 56.2547C335.955 50.2109 333.995 47.4339 330.401 47.4339C326.236 47.4339 323.867 50.4559 323.867 57.9699V77H306.307V34.5294H321.662C323.704 34.5294 323.867 35.1011 323.867 35.7545C323.867 38.4498 317.333 42.7785 317.333 52.3344H319.293C319.293 45.8004 325.174 33.3043 337.588 33.3043C346.491 33.3043 350.003 38.5314 350.003 40.8183C350.003 43.5136 346.572 44.412 346.572 52.3344H348.533C348.533 44.9837 354.005 33.3043 366.419 33.3043C379.16 33.3043 382.346 43.2685 382.346 54.2946V77H364.786V56.2547C364.786 50.2109 362.417 47.4339 358.905 47.4339C355.802 47.4339 353.515 49.6391 353.515 57.1532V77H335.955V56.2547Z" fill="#2A2C30"/>
<g clip-path="url(#clip0_143_105)">
<path d="M50.3074 3.15399C43.793 9.66832 40.9939 27.9797 39.8895 38.5859C38.7851 27.9797 35.986 9.66832 29.4717 3.15399C20.0818 -6.23582 4.96146 -6.92797 -3.93977 1.97326C-12.841 10.8745 -12.1539 25.9949 -2.75905 35.3847C3.75529 41.899 22.0667 44.6982 32.6728 45.8025C22.0667 46.9069 3.75529 49.7061 -2.75905 56.2204C-12.1489 65.6102 -12.841 80.7306 -3.93978 89.6318C4.96146 98.533 20.0818 97.846 29.4716 88.4511C35.986 81.9368 38.7851 63.6254 39.8895 53.0192C40.9939 63.6254 43.793 81.9368 50.3073 88.4511C59.6972 97.8409 74.8175 98.5331 83.7188 89.6318C92.62 80.7306 91.9329 65.6102 82.5381 56.2204C76.0237 49.7061 57.7123 46.9069 47.1062 45.8025C57.7123 44.6982 76.0237 41.899 82.5381 35.3847C91.9329 25.9949 92.62 10.8745 83.7188 1.97835C74.8226 -6.92288 59.7022 -6.23582 50.3074 3.15399Z" fill="#FFEA00"/>
<g clip-path="url(#clip1_143_105)">
<path d="M40.9652 46.0951C43.0328 45.6249 48.4474 42.93 50.7699 40.6076C53.5475 37.8316 53.7892 35.3055 52.3805 33.8968C50.9718 32.4881 48.4474 32.7315 45.6697 35.5075C43.3489 37.8283 40.6524 43.2446 40.1823 45.3121C39.7121 43.2446 37.0172 37.8299 34.6948 35.5075C31.9188 32.7315 29.3927 32.4898 27.9857 33.8985C26.577 35.3055 26.8187 37.8316 29.5963 40.6092C31.9171 42.93 37.3334 45.6266 39.4009 46.0967C37.3334 46.5668 31.9188 49.2617 29.5963 51.5842C26.8187 54.3585 26.577 56.8846 27.9857 58.2933C29.3944 59.702 31.9188 59.4587 34.6964 56.6827C37.0172 54.3619 39.7138 48.9456 40.1839 46.878C40.654 48.9456 43.3489 54.3602 45.6714 56.6827C48.4491 59.4587 50.9735 59.702 52.3822 58.2933C53.7909 56.8846 53.5475 54.3602 50.7715 51.5825C48.4507 49.2617 43.0344 46.5652 40.9669 46.0951H40.9652Z" fill="#411393"/>
</g>
</g>
<defs>
<clipPath id="clip0_143_105">
<rect width="79.7826" height="79.7826" fill="white" transform="translate(79.7827 5.91345) rotate(90)"/>
</clipPath>
<clipPath id="clip1_143_105">
<rect width="26.0783" height="26.0783" fill="white" transform="translate(27.1431 33.0563)"/>
</clipPath>
</defs>
</svg>
