<svg width="274" height="63" viewBox="0 0 274 63" fill="none" xmlns="http://www.w3.org/2000/svg">
<path d="M39.5731 31.7805C46.6788 31.7805 56.9697 35.3742 56.9697 46.9719C56.9697 55.6294 50.4358 62 32.6308 62H0.369464V1.56107H31.2423C47.9039 1.56107 53.9478 7.35994 53.9478 16.1808C53.9478 25.4099 47.6588 29.3303 38.7564 29.3303H34.7543V31.7805H39.5731ZM18.3378 49.7489H30.7523C35.7344 49.7489 39.0014 48.6054 39.0014 43.2149C39.0014 37.0077 35.7344 35.2109 30.7523 35.2109H18.3378V49.7489ZM18.3378 25.9H28.4654C32.8758 25.9 36.3878 24.5932 36.3878 19.6928C36.3878 14.5473 32.8758 13.4038 28.4654 13.4038H18.3378V25.9ZM80.7056 0.744326V62H63.1457V0.744326H80.7056ZM104.969 62.49C88.8794 62.49 87.981 49.2588 87.981 41.4998V19.5294H105.541V37.2527C105.541 45.0118 107.093 48.3604 111.422 48.3604C115.424 48.3604 117.629 45.3385 117.629 37.8244V19.5294H135.189V62H119.916C117.792 62 117.629 61.4283 117.629 60.7749C117.629 58.0796 124.163 53.4242 124.163 43.8683H122.203C122.203 50.4023 116.567 62.49 104.969 62.49ZM159.168 62.49C143.078 62.49 142.18 49.2588 142.18 41.4998V19.5294H159.739V37.2527C159.739 45.0118 161.291 48.3604 165.62 48.3604C169.622 48.3604 171.827 45.3385 171.827 37.8244V19.5294H189.387V62H174.114C171.991 62 171.827 61.4283 171.827 60.7749C171.827 58.0796 178.361 53.4242 178.361 43.8683H176.401C176.401 50.4023 170.766 62.49 159.168 62.49ZM227.154 41.2547C227.154 35.2109 225.194 32.4339 221.6 32.4339C217.435 32.4339 215.066 35.4559 215.066 42.9699V62H197.506V19.5294H212.861C214.903 19.5294 215.066 20.1011 215.066 20.7545C215.066 23.4498 208.532 27.7785 208.532 37.3344H210.492C210.492 30.8004 216.373 18.3043 228.787 18.3043C237.69 18.3043 241.202 23.5314 241.202 25.8183C241.202 28.5136 237.772 29.412 237.772 37.3344H239.732C239.732 29.9837 245.204 18.3043 257.618 18.3043C270.36 18.3043 273.545 28.2685 273.545 39.2946V62H255.985V41.2547C255.985 35.2109 253.616 32.4339 250.104 32.4339C247.001 32.4339 244.714 34.6391 244.714 42.1532V62H227.154V41.2547Z" fill="#2A2C30"/>
</svg>
