<svg width="80" height="81" viewBox="0 0 80 81" fill="none" xmlns="http://www.w3.org/2000/svg">
<g clip-path="url(#clip0_85_365)">
<path d="M50.3073 -1.84599C43.793 4.66834 40.9939 22.9797 39.8895 33.5859C38.7851 22.9797 35.986 4.66834 29.4717 -1.84599C20.0818 -11.2358 4.96146 -11.928 -3.93977 -3.02672C-12.841 5.87451 -12.1539 20.9949 -2.75904 30.3847C3.75529 36.899 22.0667 39.6982 32.6728 40.8026C22.0667 41.9069 3.75529 44.7061 -2.75904 51.2204C-12.1489 60.6102 -12.841 75.7306 -3.93978 84.6318C4.96145 93.5331 20.0818 92.846 29.4716 83.4511C35.986 76.9368 38.7851 58.6254 39.8895 48.0192C40.9939 58.6254 43.793 76.9368 50.3073 83.4511C59.6972 92.8409 74.8175 93.5331 83.7188 84.6318C92.62 75.7306 91.9329 60.6102 82.5381 51.2204C76.0237 44.7061 57.7123 41.9069 47.1062 40.8026C57.7123 39.6982 76.0237 36.899 82.5381 30.3847C91.9329 20.9949 92.62 5.87452 83.7188 -3.02163C74.8226 -11.9229 59.7022 -11.2358 50.3073 -1.84599Z" fill="#FFEA00"/>
<g clip-path="url(#clip1_85_365)">
<path d="M40.9652 41.0951C43.0328 40.625 48.4474 37.9301 50.7699 35.6076C53.5475 32.8316 53.7892 30.3055 52.3805 28.8968C50.9718 27.4881 48.4474 27.7315 45.6697 30.5075C43.3489 32.8283 40.6524 38.2446 40.1823 40.3121C39.7122 38.2446 37.0172 32.8299 34.6948 30.5075C31.9188 27.7315 29.3927 27.4898 27.9857 28.8985C26.577 30.3055 26.8187 32.8316 29.5963 35.6093C31.9171 37.9301 37.3334 40.6266 39.4009 41.0967C37.3334 41.5668 31.9188 44.2618 29.5963 46.5842C26.8187 49.3586 26.577 51.8846 27.9857 53.2933C29.3944 54.702 31.9188 54.4587 34.6965 51.6827C37.0172 49.3619 39.7138 43.9456 40.1839 41.8781C40.654 43.9456 43.3489 49.3602 45.6714 51.6827C48.4491 54.4587 50.9735 54.702 52.3822 53.2933C53.7909 51.8846 53.5475 49.3602 50.7715 46.5825C48.4507 44.2618 43.0344 41.5652 40.9669 41.0951H40.9652Z" fill="#411393"/>
</g>
</g>
<defs>
<clipPath id="clip0_85_365">
<rect width="79.7826" height="79.7826" fill="white" transform="translate(79.7827 0.913464) rotate(90)"/>
</clipPath>
<clipPath id="clip1_85_365">
<rect width="26.0783" height="26.0783" fill="white" transform="translate(27.1431 28.0563)"/>
</clipPath>
</defs>
</svg>
