<svg width="43" height="44" viewBox="0 0 43 44" fill="none" xmlns="http://www.w3.org/2000/svg">
<rect x="0.447876" y="0.756775" width="42.2587" height="42.2587" rx="7.6834" fill="white"/>
<path d="M28.1321 23.0626C28.3417 22.8522 28.4593 22.5672 28.4593 22.2702C28.4593 21.9732 28.3417 21.6883 28.1321 21.4778L23.6502 16.9958C23.5461 16.8918 23.4226 16.8092 23.2866 16.7529C23.1506 16.6966 23.0049 16.6676 22.8578 16.6676C22.5605 16.6676 22.2755 16.7857 22.0653 16.9958C21.8552 17.206 21.7371 17.491 21.7371 17.7882C21.7371 18.0855 21.8552 18.3705 22.0653 18.5807L24.6344 21.1497L16.583 21.1497C16.2858 21.1497 16.0008 21.2678 15.7907 21.4779C15.5805 21.6881 15.4625 21.9731 15.4625 22.2702C15.4625 22.5674 15.5805 22.8524 15.7907 23.0625C16.0008 23.2727 16.2858 23.3907 16.583 23.3907L24.6344 23.3907L22.0653 25.9598C21.9613 26.0639 21.8787 26.1874 21.8224 26.3234C21.7661 26.4593 21.7371 26.605 21.7371 26.7522C21.7371 26.8994 21.7661 27.0451 21.8224 27.1811C21.8787 27.317 21.9613 27.4406 22.0653 27.5446C22.1694 27.6487 22.2929 27.7312 22.4289 27.7876C22.5649 27.8439 22.7106 27.8729 22.8578 27.8729C23.0049 27.8729 23.1506 27.8439 23.2866 27.7876C23.4226 27.7312 23.5461 27.6487 23.6502 27.5446L28.1321 23.0626Z" fill="black"/>
</svg>
