<svg width="451" height="126" viewBox="0 0 451 126" fill="none" xmlns="http://www.w3.org/2000/svg">
<path d="M15.1009 88.2522C-11.4823 113.839 4.02453 161.558 15.1009 182.219L169.52 217.328C244.456 216.298 402.338 203.71 434.377 161.595C474.426 108.95 433.403 -33.5809 371.851 -98.6516C310.299 -163.722 277.035 -34.6102 249.652 -13.9493C222.269 6.71153 260.404 73.8042 225.226 59.3563C190.049 44.9084 168.67 40.1109 160.578 51.7464C152.485 63.3818 163.708 101.781 154.871 117.185C138.274 146.117 48.3298 56.2682 15.1009 88.2522Z" fill="#734DFF"/>
<path d="M15.1009 182.219L15.0685 182.236L15.0764 182.251L15.0927 182.255L15.1009 182.219ZM15.1009 88.2522L15.1263 88.2786L15.1009 88.2522ZM154.871 117.185L154.903 117.203L154.871 117.185ZM160.578 51.7464L160.547 51.7254L160.578 51.7464ZM225.226 59.3563L225.212 59.3903L225.226 59.3563ZM249.652 -13.9493L249.674 -13.92L249.652 -13.9493ZM434.377 161.595L434.348 161.572L434.377 161.595ZM169.52 217.328L169.511 217.364L169.52 217.364L169.52 217.328ZM15.1332 182.201C9.59678 171.874 2.95282 154.784 1.01509 137.079C-0.922691 119.373 1.84654 101.061 15.1263 88.2786L15.0754 88.2257C1.772 101.031 -0.996926 119.371 0.942006 137.087C2.88098 154.803 9.52861 171.902 15.0685 182.236L15.1332 182.201ZM15.1263 88.2786C23.4194 80.2963 35.2546 79.9113 48.6152 83.3839C61.9751 86.8562 76.8485 94.1828 91.2061 101.607C105.562 109.03 119.402 116.551 130.691 120.407C136.336 122.335 141.346 123.348 145.467 122.973C149.589 122.598 152.822 120.832 154.903 117.203L154.839 117.166C152.772 120.771 149.563 122.526 145.46 122.9C141.355 123.274 136.356 122.264 130.715 120.337C119.433 116.484 105.599 108.966 91.2399 101.542C76.8831 94.1179 62.0027 86.7874 48.6337 83.3127C35.2655 79.8382 23.3967 80.2161 15.0754 88.2257L15.1263 88.2786ZM154.903 117.203C157.117 113.344 158.072 108.049 158.389 102.1C158.706 96.1496 158.385 89.54 158.04 83.0505C157.695 76.56 157.327 70.1899 157.551 64.7152C157.775 59.2389 158.591 54.6668 160.608 51.7674L160.547 51.7254C158.518 54.6436 157.702 59.2348 157.478 64.7122C157.254 70.1911 157.622 76.5652 157.967 83.0544C158.311 89.5445 158.633 96.1502 158.316 102.096C157.999 108.042 157.044 113.323 154.839 117.166L154.903 117.203ZM160.608 51.7674C164.642 45.9675 171.99 44.2561 182.74 45.8065C193.488 47.3567 207.624 52.1664 225.212 59.3903L225.24 59.3223C207.651 52.0983 193.509 47.2853 182.75 45.7337C171.993 44.1822 164.606 45.8898 160.547 51.7254L160.608 51.7674ZM225.212 59.3903C229.612 61.1972 232.872 61.7325 235.26 61.238C237.652 60.7428 239.163 59.216 240.067 56.9164C240.969 54.6191 241.265 51.5486 241.23 47.9585C241.195 44.3677 240.827 40.253 240.398 35.8657C239.541 27.0895 238.442 17.2215 239.267 8.25607C240.091 -0.709015 242.84 -8.76382 249.674 -13.92L249.63 -13.9787C242.772 -8.80444 240.019 -0.724823 239.193 8.24934C238.368 17.2232 239.469 27.0993 240.325 35.8728C240.754 40.2605 241.121 44.3721 241.156 47.9592C241.192 51.5469 240.895 54.6058 239.998 56.8895C239.102 59.171 237.608 60.6768 235.245 61.166C232.878 61.656 229.635 61.1274 225.24 59.3223L225.212 59.3903ZM249.674 -13.92C253.102 -16.5064 256.62 -20.7877 260.271 -26.1691C263.922 -31.5511 267.709 -38.0363 271.674 -45.0328C279.606 -59.027 288.253 -75.067 297.968 -88.4282C307.684 -101.79 318.462 -112.466 330.651 -115.739C342.835 -119.01 356.442 -114.888 371.824 -98.6264L371.878 -98.6769C356.485 -114.95 342.851 -119.091 330.632 -115.81C318.417 -112.53 307.626 -101.836 297.909 -88.4715C288.191 -75.1059 279.541 -59.0609 271.61 -45.0691C267.645 -38.0726 263.859 -31.5897 260.21 -26.2104C256.56 -20.8305 253.048 -16.5575 249.63 -13.9787L249.674 -13.92ZM371.824 -98.6264C402.595 -66.0967 428.236 -14.2025 441.179 36.1404C447.65 61.3115 450.946 86.0931 450.122 107.871C449.298 129.649 444.354 148.42 434.348 161.572L434.406 161.617C444.425 148.447 449.371 129.66 450.195 107.874C451.02 86.087 447.722 61.2981 441.25 36.1221C428.305 -14.2293 402.659 -66.1358 371.878 -98.6769L371.824 -98.6264ZM434.348 161.572C426.345 172.092 410.479 180.773 390.003 187.891C369.528 195.009 344.449 200.562 318.029 204.832C265.189 213.372 206.986 216.776 169.519 217.291L169.52 217.364C206.99 216.85 265.196 213.445 318.041 204.905C344.463 200.635 369.546 195.08 390.027 187.96C410.506 180.841 426.39 172.155 434.406 161.617L434.348 161.572ZM169.528 217.292L15.109 182.183L15.0927 182.255L169.512 217.363L169.528 217.292Z" fill="#734DFF"/>
</svg>
