<svg width="196" height="196" viewBox="0 0 196 196" fill="none" xmlns="http://www.w3.org/2000/svg">
<path d="M76.186 36.6087L87.0839 54.5906L88.1204 33.6534L97.8418 0.668052L148.872 15.2696L140.178 48.7851L129.347 67.014L148.606 57.4251L181.816 49.0444L195.399 100.683L161.927 109.32L140.97 109.835L158.42 120.915L182.682 145.788L144.194 183.329L119.933 158.457L108.767 141.247L107.73 162.184L98.264 195.432L46.9789 180.568L56.1832 147.576L66.2482 128.562L47.7555 138.936L14.0341 146.793L0.70653 95.4163L33.9236 86.5183L54.88 86.0031L37.6984 74.1504L13.4367 49.2775L51.9243 11.7358L76.186 36.6087Z" fill="#32CA84"/>
</svg>
