<svg width="34" height="34" viewBox="0 0 34 34" fill="none" xmlns="http://www.w3.org/2000/svg">
<path d="M9.83165 7.08377C9.83127 7.83522 9.5324 8.55574 9.00078 9.08683C8.46916 9.61792 7.74834 9.91607 6.9969 9.91569C6.24545 9.91532 5.52493 9.61644 4.99384 9.08482C4.46275 8.55321 4.1646 7.83239 4.16498 7.08094C4.16535 6.32949 4.46423 5.60897 4.99584 5.07789C5.52746 4.5468 6.24828 4.24865 6.99973 4.24902C7.75117 4.2494 8.4717 4.54827 9.00278 5.07989C9.53387 5.61151 9.83202 6.33233 9.83165 7.08377ZM9.91665 12.0138H4.24998V29.7504H9.91665V12.0138ZM18.87 12.0138H13.2316V29.7504H18.8133V20.4429C18.8133 15.2579 25.5708 14.7763 25.5708 20.4429V29.7504H31.1666V18.5163C31.1666 9.77544 21.165 10.1013 18.8133 14.3938L18.87 12.0138Z" fill="white"/>
</svg>
