<svg width="505" height="880" viewBox="0 0 505 880" fill="none" xmlns="http://www.w3.org/2000/svg">
<path d="M0 30C0 13.4315 13.4315 0 30 0H505V880H30C13.4314 880 0 866.569 0 850V30Z" fill="#261954"/>
<path d="M140.274 89.1328C145.415 89.1328 152.862 91.7332 152.862 100.125C152.862 106.39 148.134 111 135.25 111H111.905V67.2655H134.245C146.302 67.2655 150.675 71.4617 150.675 77.8445C150.675 84.5229 146.124 87.3597 139.683 87.3597H136.787V89.1328H140.274ZM124.907 102.135H133.891C137.496 102.135 139.86 101.307 139.86 97.4068C139.86 92.9152 137.496 91.615 133.891 91.615H124.907V102.135ZM124.907 84.8775H132.236C135.427 84.8775 137.969 83.9319 137.969 80.3859C137.969 76.6625 135.427 75.8351 132.236 75.8351H124.907V84.8775ZM171.811 66.6745V111H159.104V66.6745H171.811ZM191.141 111.355C179.498 111.355 178.848 101.78 178.848 96.1657V80.2677H191.555V93.0925C191.555 98.7071 192.678 101.13 195.81 101.13C198.706 101.13 200.302 98.9435 200.302 93.5062V80.2677H213.008V111H201.957C200.42 111 200.302 110.586 200.302 110.113C200.302 108.163 205.03 104.794 205.03 97.8797H203.611C203.611 102.608 199.533 111.355 191.141 111.355ZM232.133 111.355C220.49 111.355 219.84 101.78 219.84 96.1657V80.2677H232.547V93.0925C232.547 98.7071 233.67 101.13 236.802 101.13C239.698 101.13 241.294 98.9435 241.294 93.5062V80.2677H254V111H242.948C241.412 111 241.294 110.586 241.294 110.113C241.294 108.163 246.022 104.794 246.022 97.8797H244.603C244.603 102.608 240.525 111.355 232.133 111.355ZM283.102 95.9884C283.102 91.615 281.683 89.6056 279.083 89.6056C276.069 89.6056 274.355 91.7923 274.355 97.2295V111H261.648V80.2677H272.759C274.237 80.2677 274.355 80.6814 274.355 81.1542C274.355 83.1045 269.627 86.2368 269.627 93.1516H271.045C271.045 88.4235 275.301 79.3811 284.284 79.3811C290.726 79.3811 293.267 83.1636 293.267 84.8184C293.267 86.7687 290.785 87.4188 290.785 93.1516H292.203C292.203 87.8325 296.163 79.3811 305.146 79.3811C314.366 79.3811 316.671 86.5914 316.671 94.57V111H303.964V95.9884C303.964 91.615 302.25 89.6056 299.709 89.6056C297.463 89.6056 295.808 91.2013 295.808 96.6385V111H283.102V95.9884Z" fill="white"/>
<g clip-path="url(#clip0_80_108)">
<path d="M76.4031 57.2823C71.6893 61.9962 69.6638 75.2466 68.8646 82.9214C68.0655 75.2466 66.04 61.9962 61.3261 57.2823C54.5315 50.4877 43.5902 49.9869 37.1491 56.4279C30.7081 62.869 31.2052 73.8103 38.0035 80.6049C42.7174 85.3188 55.9678 87.3443 63.6425 88.1434C55.9678 88.9426 42.7174 90.9681 38.0035 95.6819C31.2089 102.477 30.7081 113.418 37.1491 119.859C43.5902 126.3 54.5315 125.803 61.3261 119.005C66.04 114.291 68.0655 101.04 68.8646 93.3655C69.6638 101.04 71.6893 114.291 76.4031 119.005C83.1977 125.799 94.1391 126.3 100.58 119.859C107.021 113.418 106.524 102.477 99.7257 95.6819C95.0119 90.9681 81.7615 88.9426 74.0867 88.1434C81.7615 87.3443 95.0119 85.3188 99.7257 80.6049C106.524 73.8103 107.021 62.869 100.58 56.4316C94.1428 49.9906 83.2014 50.4877 76.4031 57.2823Z" fill="#FFEA00"/>
<g clip-path="url(#clip1_80_108)">
<path d="M69.6431 88.3552C71.1392 88.015 75.0573 86.0649 76.7378 84.3844C78.7478 82.3756 78.9227 80.5477 77.9033 79.5284C76.884 78.509 75.0573 78.6851 73.0473 80.6939C71.3679 82.3732 69.4167 86.2925 69.0765 87.7886C68.7363 86.2925 66.7862 82.3744 65.1057 80.6939C63.0969 78.6851 61.269 78.5102 60.2509 79.5296C59.2315 80.5477 59.4064 82.3756 61.4164 84.3856C63.0957 86.0649 67.015 88.0162 68.5111 88.3564C67.015 88.6966 63.0969 90.6466 61.4164 92.3272C59.4064 94.3348 59.2315 96.1627 60.2509 97.182C61.2702 98.2014 63.0969 98.0253 65.1069 96.0165C66.7862 94.3372 68.7375 90.4179 69.0777 88.9218C69.4179 90.4179 71.3679 94.336 73.0485 96.0165C75.0585 98.0253 76.8852 98.2014 77.9045 97.182C78.9239 96.1627 78.7478 94.336 76.739 92.326C75.0597 90.6466 71.1404 88.6954 69.6443 88.3552H69.6431Z" fill="#411393"/>
</g>
</g>
<rect x="446.484" y="29.4565" width="27.272" height="4.95855" transform="rotate(45 446.484 29.4565)" fill="white"/>
<rect x="465.568" y="32.5062" width="27.272" height="4.95855" transform="rotate(135 465.568 32.5062)" fill="white"/>
<path d="M62.8278 203V175.452H69.5478V203H62.8278ZM44.88 203V175.452H51.6V203H44.88ZM48.9704 191.814V186.388H65.5409V191.814H48.9704ZM85.2196 203.584C82.9935 203.584 81.0178 203.153 79.2926 202.29C77.5952 201.428 76.2596 200.134 75.2856 198.409C74.3117 196.683 73.8248 194.527 73.8248 191.939C73.8248 189.351 74.3117 187.209 75.2856 185.511C76.2596 183.786 77.6091 182.506 79.3343 181.671C81.0596 180.809 83.0352 180.377 85.2613 180.377C87.4874 180.377 89.463 180.809 91.1883 181.671C92.9135 182.534 94.263 183.828 95.237 185.553C96.2109 187.25 96.6978 189.393 96.6978 191.981C96.6978 194.624 96.197 196.809 95.1952 198.534C94.1935 200.259 92.8161 201.539 91.063 202.374C89.3378 203.181 87.39 203.584 85.2196 203.584ZM85.4283 198.701C86.43 198.701 87.2648 198.478 87.9326 198.033C88.6004 197.56 89.1013 196.85 89.4352 195.904C89.7691 194.958 89.9361 193.79 89.9361 192.398C89.9361 190.923 89.7552 189.685 89.3935 188.683C89.0317 187.654 88.4891 186.875 87.7657 186.346C87.07 185.79 86.1657 185.511 85.0526 185.511C84.1065 185.511 83.2856 185.748 82.59 186.221C81.9222 186.666 81.4213 187.362 81.0874 188.308C80.7535 189.254 80.5865 190.437 80.5865 191.856C80.5865 194.137 81.0039 195.849 81.8387 196.99C82.7013 198.13 83.8978 198.701 85.4283 198.701ZM100.634 203V188.767V180.962H105.935L106.018 187.431H106.853C107.243 185.845 107.757 184.537 108.397 183.508C109.037 182.45 109.817 181.671 110.735 181.17C111.653 180.642 112.724 180.377 113.949 180.377C115.229 180.377 116.286 180.656 117.121 181.212C117.984 181.741 118.665 182.534 119.166 183.591C119.667 184.621 120.001 185.901 120.168 187.431H120.877C121.323 185.79 121.907 184.454 122.631 183.424C123.354 182.367 124.217 181.602 125.218 181.129C126.22 180.628 127.305 180.377 128.474 180.377C129.726 180.377 130.811 180.628 131.73 181.129C132.676 181.602 133.455 182.325 134.067 183.299C134.707 184.245 135.18 185.442 135.486 186.889C135.792 188.308 135.945 189.963 135.945 191.856V203H129.184V192.69C129.184 191.216 129.058 189.991 128.808 189.017C128.585 188.043 128.224 187.32 127.723 186.847C127.222 186.346 126.582 186.096 125.803 186.096C124.912 186.096 124.147 186.388 123.507 186.972C122.895 187.557 122.422 188.377 122.088 189.435C121.754 190.464 121.587 191.633 121.587 192.941V203H114.992V192.816C114.992 191.285 114.853 190.033 114.575 189.059C114.324 188.085 113.935 187.348 113.406 186.847C112.905 186.346 112.265 186.096 111.486 186.096C110.596 186.096 109.844 186.388 109.232 186.972C108.62 187.557 108.147 188.377 107.813 189.435C107.507 190.464 107.354 191.633 107.354 192.941V203H100.634ZM151.301 203.584C149.464 203.584 147.822 203.348 146.376 202.875C144.929 202.374 143.69 201.65 142.661 200.704C141.659 199.758 140.894 198.59 140.365 197.198C139.836 195.807 139.572 194.207 139.572 192.398C139.572 190.645 139.822 189.031 140.323 187.557C140.852 186.082 141.589 184.816 142.536 183.758C143.509 182.673 144.692 181.838 146.083 181.254C147.502 180.67 149.089 180.377 150.842 180.377C152.622 180.377 154.181 180.67 155.516 181.254C156.88 181.81 157.993 182.645 158.856 183.758C159.746 184.871 160.4 186.235 160.817 187.849C161.235 189.435 161.374 191.257 161.235 193.317L143.996 193.442V189.936L157.395 189.81L155.016 191.438C155.21 190.047 155.127 188.92 154.765 188.057C154.403 187.167 153.875 186.527 153.179 186.137C152.483 185.72 151.732 185.511 150.925 185.511C149.951 185.511 149.089 185.776 148.337 186.304C147.614 186.833 147.043 187.598 146.626 188.6C146.209 189.602 146 190.826 146 192.273C146 194.555 146.487 196.21 147.461 197.24C148.462 198.27 149.729 198.784 151.259 198.784C152.01 198.784 152.636 198.687 153.137 198.492C153.638 198.27 154.042 198.005 154.348 197.699C154.682 197.365 154.932 197.003 155.099 196.614C155.294 196.224 155.447 195.849 155.558 195.487L161.402 196.739C161.179 197.769 160.817 198.701 160.316 199.536C159.843 200.37 159.189 201.094 158.355 201.706C157.548 202.318 156.56 202.777 155.391 203.083C154.25 203.417 152.887 203.584 151.301 203.584Z" fill="white"/>
<path d="M40.5843 276L49.9339 248.452H59.7843L69.1339 276H61.7878L55.193 253.711H54.5252L47.9304 276H40.5843ZM46.1357 270.824V266.317H64.5843V270.824H46.1357ZM86.1618 276.584C84.7705 276.584 83.5462 276.32 82.4888 275.791C81.4592 275.263 80.6105 274.47 79.9427 273.412C79.3027 272.355 78.8714 271.047 78.6488 269.489H77.8558L77.7305 276H72.221V265.19V245.948H78.941V253.252C78.941 253.92 78.8853 254.63 78.774 255.381C78.6905 256.104 78.5653 256.87 78.3984 257.677C78.2592 258.483 78.1062 259.346 77.9392 260.264H78.8992C79.2888 258.762 79.8036 257.51 80.4436 256.508C81.0836 255.506 81.8766 254.755 82.8227 254.254C83.7966 253.725 84.9375 253.461 86.2453 253.461C88.0818 253.461 89.6679 253.934 91.0036 254.88C92.3671 255.826 93.4245 257.176 94.1758 258.929C94.9271 260.654 95.3027 262.727 95.3027 265.148C95.3027 267.485 94.9271 269.517 94.1758 271.242C93.4523 272.939 92.4088 274.261 91.0453 275.207C89.6818 276.125 88.054 276.584 86.1618 276.584ZM83.6575 271.158C84.5758 271.158 85.3827 270.908 86.0784 270.407C86.774 269.878 87.3027 269.155 87.6645 268.237C88.054 267.29 88.2488 266.191 88.2488 264.939C88.2488 263.659 88.0679 262.574 87.7062 261.683C87.3445 260.765 86.8297 260.056 86.1618 259.555C85.5218 259.054 84.7427 258.803 83.8245 258.803C83.2123 258.803 82.6418 258.915 82.1132 259.137C81.6123 259.36 81.1671 259.666 80.7775 260.056C80.3879 260.445 80.054 260.89 79.7758 261.391C79.4975 261.864 79.2888 262.379 79.1497 262.936C79.0105 263.464 78.941 263.993 78.941 264.522V265.398C78.941 265.983 79.0245 266.609 79.1914 267.277C79.3584 267.944 79.6227 268.57 79.9845 269.155C80.374 269.739 80.861 270.226 81.4453 270.616C82.0575 270.977 82.7949 271.158 83.6575 271.158ZM109.429 276.584C107.203 276.584 105.227 276.153 103.502 275.29C101.804 274.428 100.469 273.134 99.4949 271.409C98.521 269.683 98.034 267.527 98.034 264.939C98.034 262.351 98.521 260.209 99.4949 258.511C100.469 256.786 101.818 255.506 103.544 254.671C105.269 253.809 107.244 253.377 109.471 253.377C111.697 253.377 113.672 253.809 115.397 254.671C117.123 255.534 118.472 256.828 119.446 258.553C120.42 260.25 120.907 262.393 120.907 264.981C120.907 267.624 120.406 269.809 119.404 271.534C118.403 273.259 117.025 274.539 115.272 275.374C113.547 276.181 111.599 276.584 109.429 276.584ZM109.637 271.701C110.639 271.701 111.474 271.478 112.142 271.033C112.81 270.56 113.311 269.85 113.644 268.904C113.978 267.958 114.145 266.79 114.145 265.398C114.145 263.923 113.964 262.685 113.603 261.683C113.241 260.654 112.698 259.875 111.975 259.346C111.279 258.79 110.375 258.511 109.262 258.511C108.316 258.511 107.495 258.748 106.799 259.221C106.131 259.666 105.631 260.362 105.297 261.308C104.963 262.254 104.796 263.437 104.796 264.856C104.796 267.137 105.213 268.849 106.048 269.99C106.911 271.13 108.107 271.701 109.637 271.701ZM132.398 276.584C129.782 276.584 127.807 275.708 126.471 273.955C125.163 272.174 124.509 269.475 124.509 265.857V253.962H131.271V264.981C131.271 267.04 131.577 268.584 132.189 269.614C132.802 270.616 133.734 271.117 134.986 271.117C135.737 271.117 136.377 270.936 136.906 270.574C137.462 270.184 137.922 269.656 138.283 268.988C138.673 268.292 138.951 267.499 139.118 266.609C139.313 265.718 139.41 264.744 139.41 263.687V253.962H146.13V267.068V276H140.788L140.662 269.197H139.828C139.41 270.922 138.882 272.341 138.242 273.454C137.629 274.539 136.85 275.332 135.904 275.833C134.958 276.334 133.789 276.584 132.398 276.584ZM159.895 276.543C157.307 276.543 155.401 275.861 154.177 274.497C152.953 273.106 152.341 270.894 152.341 267.861V259.221H149.21L149.335 254.003H151.589C152.48 253.976 153.147 253.837 153.593 253.586C154.066 253.336 154.358 252.863 154.469 252.167L155.012 249.078H158.81V253.962H164.111V259.43H158.81V267.569C158.81 268.515 159.033 269.21 159.478 269.656C159.951 270.101 160.661 270.323 161.607 270.323C162.135 270.323 162.636 270.268 163.109 270.157C163.582 270.045 163.972 269.892 164.278 269.697V275.917C163.387 276.195 162.567 276.362 161.815 276.417C161.092 276.501 160.452 276.543 159.895 276.543Z" fill="white"/>
<path d="M41.92 766V753.592H44.104V766H41.92ZM43.024 751.432C42.512 751.432 42.128 751.328 41.872 751.12C41.616 750.912 41.488 750.6 41.488 750.184C41.488 749.768 41.616 749.456 41.872 749.248C42.128 749.04 42.504 748.936 43 748.936C43.512 748.936 43.896 749.04 44.152 749.248C44.408 749.456 44.536 749.768 44.536 750.184C44.536 750.584 44.408 750.896 44.152 751.12C43.896 751.328 43.52 751.432 43.024 751.432ZM47.896 766V758.296V753.592H49.864L49.648 757.528H50.056C50.28 756.552 50.576 755.752 50.944 755.128C51.328 754.504 51.808 754.04 52.384 753.736C52.96 753.432 53.632 753.28 54.4 753.28C55.776 753.28 56.816 753.776 57.52 754.768C58.24 755.744 58.6 757.208 58.6 759.16V766H56.392V759.352C56.392 757.944 56.168 756.904 55.72 756.232C55.288 755.56 54.648 755.224 53.8 755.224C53.032 755.224 52.376 755.464 51.832 755.944C51.304 756.424 50.888 757.056 50.584 757.84C50.28 758.624 50.112 759.472 50.08 760.384V766H47.896ZM63.1534 766V757.24H60.9454V755.488L64.0414 755.68V755.272C63.6414 755.112 63.3054 754.896 63.0334 754.624C62.7774 754.336 62.5774 754.008 62.4334 753.64C62.3054 753.272 62.2414 752.88 62.2414 752.464C62.2414 751.792 62.3854 751.208 62.6734 750.712C62.9774 750.216 63.4014 749.824 63.9454 749.536C64.5054 749.248 65.1694 749.104 65.9374 749.104C66.5454 749.104 67.0894 749.192 67.5694 749.368C68.0654 749.528 68.4734 749.744 68.7934 750.016L68.5294 752.056C68.2254 751.768 67.8574 751.544 67.4254 751.384C66.9934 751.208 66.5614 751.12 66.1294 751.12C65.6014 751.12 65.1694 751.288 64.8334 751.624C64.4974 751.96 64.3294 752.48 64.3294 753.184C64.3294 753.584 64.3854 753.928 64.4974 754.216C64.6094 754.504 64.7534 754.752 64.9294 754.96C65.1214 755.152 65.3134 755.312 65.5054 755.44H68.5774L68.5534 757.24H65.3134V766H63.1534ZM76.3803 766.312C75.1963 766.312 74.1483 766.056 73.2363 765.544C72.3403 765.016 71.6363 764.264 71.1243 763.288C70.6283 762.312 70.3803 761.128 70.3803 759.736C70.3803 758.296 70.6443 757.104 71.1723 756.16C71.7163 755.2 72.4363 754.48 73.3323 754C74.2283 753.52 75.2283 753.28 76.3323 753.28C77.4843 753.28 78.5083 753.536 79.4043 754.048C80.3163 754.544 81.0363 755.28 81.5643 756.256C82.0923 757.216 82.3563 758.408 82.3563 759.832C82.3563 761.256 82.0923 762.448 81.5643 763.408C81.0523 764.368 80.3403 765.096 79.4283 765.592C78.5323 766.072 77.5163 766.312 76.3803 766.312ZM76.4763 764.512C77.2443 764.512 77.9003 764.328 78.4443 763.96C79.0043 763.576 79.4283 763.04 79.7163 762.352C80.0203 761.664 80.1723 760.848 80.1723 759.904C80.1723 758.928 80.0123 758.088 79.6923 757.384C79.3883 756.664 78.9483 756.112 78.3723 755.728C77.7963 755.328 77.1003 755.128 76.2843 755.128C75.5483 755.128 74.9003 755.304 74.3403 755.656C73.7803 756.008 73.3483 756.528 73.0443 757.216C72.7403 757.888 72.5883 758.712 72.5883 759.688C72.5883 761.192 72.9323 762.376 73.6203 763.24C74.3243 764.088 75.2763 764.512 76.4763 764.512ZM94.7783 768.472C93.2743 768.472 91.9223 768.28 90.7223 767.896C89.5383 767.512 88.5303 766.936 87.6983 766.168C86.8823 765.416 86.2583 764.48 85.8263 763.36C85.3943 762.24 85.1783 760.936 85.1783 759.448C85.1783 757.976 85.3943 756.68 85.8263 755.56C86.2583 754.424 86.8823 753.472 87.6983 752.704C88.5303 751.936 89.5383 751.36 90.7223 750.976C91.9223 750.592 93.2743 750.4 94.7783 750.4C96.2823 750.4 97.6263 750.592 98.8103 750.976C100.01 751.36 101.018 751.936 101.834 752.704C102.666 753.472 103.298 754.424 103.73 755.56C104.178 756.68 104.402 757.976 104.402 759.448C104.402 760.936 104.178 762.24 103.73 763.36C103.298 764.48 102.666 765.416 101.834 766.168C101.002 766.936 99.9943 767.512 98.8103 767.896C97.6263 768.28 96.2823 768.472 94.7783 768.472ZM94.7783 766.648C96.4423 766.648 97.8343 766.384 98.9543 765.856C100.09 765.328 100.954 764.536 101.546 763.48C102.138 762.408 102.434 761.064 102.434 759.448C102.434 757.832 102.138 756.496 101.546 755.44C100.97 754.368 100.106 753.568 98.9543 753.04C97.8183 752.496 96.4263 752.224 94.7783 752.224C93.1143 752.224 91.7143 752.496 90.5783 753.04C89.4423 753.568 88.5863 754.368 88.0103 755.44C87.4343 756.496 87.1463 757.832 87.1463 759.448C87.1463 761.064 87.4343 762.408 88.0103 763.48C88.5863 764.536 89.4423 765.328 90.5783 765.856C91.7143 766.384 93.1143 766.648 94.7783 766.648ZM93.8183 762.712C94.0743 762.712 94.3383 762.672 94.6103 762.592C94.8983 762.512 95.1703 762.384 95.4263 762.208C95.6983 762.032 95.9543 761.808 96.1943 761.536C96.4343 761.248 96.6423 760.896 96.8183 760.48L96.7943 758.656L97.2983 758.776C97.0743 759.016 96.7623 759.192 96.3623 759.304C95.9623 759.4 95.5223 759.488 95.0423 759.568C94.5783 759.632 94.1303 759.72 93.6983 759.832C93.2823 759.944 92.9303 760.112 92.6423 760.336C92.3703 760.56 92.2343 760.904 92.2343 761.368C92.2343 761.8 92.3863 762.136 92.6903 762.376C92.9943 762.6 93.3703 762.712 93.8183 762.712ZM93.2183 764.152C92.7063 764.152 92.2263 764.064 91.7783 763.888C91.3303 763.696 90.9623 763.416 90.6743 763.048C90.4023 762.664 90.2663 762.176 90.2663 761.584C90.2663 760.976 90.3943 760.488 90.6503 760.12C90.9223 759.752 91.2663 759.464 91.6823 759.256C92.1143 759.032 92.5863 758.872 93.0983 758.776C93.6103 758.664 94.1063 758.576 94.5863 758.512C95.1623 758.448 95.6103 758.376 95.9303 758.296C96.2503 758.2 96.4743 758.088 96.6023 757.96C96.7303 757.816 96.7943 757.624 96.7943 757.384C96.7943 757.128 96.7223 756.896 96.5783 756.688C96.4503 756.48 96.2423 756.312 95.9543 756.184C95.6823 756.04 95.3303 755.968 94.8983 755.968C94.5623 755.968 94.2103 756.024 93.8423 756.136C93.4903 756.232 93.1863 756.416 92.9303 756.688C92.6743 756.96 92.5063 757.352 92.4263 757.864L90.5543 757.312C90.6343 756.832 90.7943 756.408 91.0343 756.04C91.2903 755.672 91.6103 755.36 91.9943 755.104C92.3783 754.848 92.8183 754.656 93.3143 754.528C93.8103 754.384 94.3543 754.312 94.9463 754.312C95.7783 754.312 96.4503 754.44 96.9623 754.696C97.4743 754.936 97.8583 755.248 98.1143 755.632C98.3863 756.016 98.5703 756.432 98.6663 756.88C98.7623 757.328 98.8103 757.76 98.8103 758.176V760.312C98.8103 760.6 98.8183 760.896 98.8343 761.2C98.8503 761.488 98.8583 761.784 98.8583 762.088C98.8743 762.392 98.8903 762.696 98.9063 763C98.9383 763.288 98.9543 763.584 98.9543 763.888H97.2743C97.2423 763.472 97.2103 763.072 97.1783 762.688C97.1463 762.288 97.1223 761.912 97.1063 761.56H96.8183C96.6423 762.088 96.3783 762.552 96.0263 762.952C95.6903 763.336 95.2823 763.632 94.8023 763.84C94.3223 764.048 93.7943 764.152 93.2183 764.152ZM114.328 766.312C113.528 766.312 112.84 766.152 112.264 765.832C111.704 765.512 111.248 765.08 110.896 764.536C110.56 763.976 110.304 763.344 110.128 762.64H109.744L109.864 766H107.896V759.88V749.2H110.104V753.088C110.104 753.504 110.08 753.944 110.032 754.408C110 754.856 109.944 755.32 109.864 755.8C109.8 756.28 109.728 756.744 109.648 757.192H110.08C110.256 756.52 110.512 755.888 110.848 755.296C111.184 754.704 111.632 754.224 112.192 753.856C112.768 753.488 113.48 753.304 114.328 753.304C115.384 753.304 116.28 753.584 117.016 754.144C117.768 754.688 118.344 755.448 118.744 756.424C119.144 757.4 119.344 758.536 119.344 759.832C119.344 761.08 119.144 762.192 118.744 763.168C118.36 764.144 117.792 764.912 117.04 765.472C116.304 766.032 115.4 766.312 114.328 766.312ZM113.8 764.392C114.488 764.392 115.072 764.208 115.552 763.84C116.032 763.472 116.4 762.944 116.656 762.256C116.928 761.568 117.064 760.768 117.064 759.856C117.064 758.96 116.936 758.168 116.68 757.48C116.424 756.776 116.056 756.224 115.576 755.824C115.096 755.408 114.504 755.2 113.8 755.2C113.288 755.2 112.832 755.304 112.432 755.512C112.032 755.704 111.68 755.968 111.376 756.304C111.088 756.64 110.848 757.008 110.656 757.408C110.464 757.808 110.32 758.208 110.224 758.608C110.128 759.008 110.08 759.376 110.08 759.712V760C110.08 760.48 110.16 760.976 110.32 761.488C110.496 762 110.744 762.48 111.064 762.928C111.384 763.36 111.776 763.712 112.24 763.984C112.704 764.256 113.224 764.392 113.8 764.392ZM122.498 766V749.2H124.682V766H122.498ZM132.435 766.312C131.059 766.312 130.019 765.832 129.315 764.872C128.611 763.912 128.259 762.48 128.259 760.576V753.592H130.467V760.384C130.467 761.728 130.675 762.728 131.091 763.384C131.507 764.04 132.163 764.368 133.059 764.368C133.555 764.368 133.995 764.248 134.379 764.008C134.779 763.768 135.131 763.424 135.435 762.976C135.739 762.528 135.987 762 136.179 761.392C136.371 760.768 136.499 760.096 136.563 759.376V753.592H138.747V760.816V766H136.803L136.995 762.016H136.635C136.427 763.008 136.131 763.824 135.747 764.464C135.379 765.088 134.915 765.552 134.355 765.856C133.795 766.16 133.155 766.312 132.435 766.312ZM146.521 766.312C145.145 766.312 144.105 765.832 143.401 764.872C142.697 763.912 142.345 762.48 142.345 760.576V753.592H144.553V760.384C144.553 761.728 144.761 762.728 145.177 763.384C145.593 764.04 146.249 764.368 147.145 764.368C147.641 764.368 148.081 764.248 148.465 764.008C148.865 763.768 149.217 763.424 149.521 762.976C149.825 762.528 150.073 762 150.265 761.392C150.457 760.768 150.585 760.096 150.649 759.376V753.592H152.833V760.816V766H150.889L151.081 762.016H150.721C150.513 763.008 150.217 763.824 149.833 764.464C149.465 765.088 149.001 765.552 148.441 765.856C147.881 766.16 147.241 766.312 146.521 766.312ZM156.623 766V758.32V753.592H158.567L158.351 757.528H158.759C158.967 756.584 159.247 755.8 159.599 755.176C159.951 754.536 160.383 754.064 160.895 753.76C161.423 753.44 162.023 753.28 162.695 753.28C163.495 753.28 164.151 753.48 164.663 753.88C165.175 754.264 165.551 754.768 165.791 755.392C166.047 756.016 166.175 756.704 166.175 757.456H166.559C166.735 756.56 167.007 755.8 167.375 755.176C167.743 754.552 168.199 754.08 168.743 753.76C169.287 753.44 169.911 753.28 170.615 753.28C171.255 753.28 171.815 753.408 172.295 753.664C172.775 753.92 173.183 754.304 173.519 754.816C173.855 755.312 174.103 755.928 174.263 756.664C174.423 757.4 174.503 758.248 174.503 759.208V766H172.319V759.496C172.319 758.552 172.231 757.768 172.055 757.144C171.879 756.504 171.615 756.032 171.263 755.728C170.927 755.408 170.495 755.248 169.967 755.248C169.375 755.248 168.839 755.456 168.359 755.872C167.895 756.272 167.511 756.84 167.207 757.576C166.919 758.296 166.727 759.12 166.631 760.048V766H164.495V759.712C164.495 758.72 164.407 757.896 164.231 757.24C164.055 756.584 163.791 756.088 163.439 755.752C163.103 755.416 162.663 755.248 162.119 755.248C161.479 755.248 160.927 755.472 160.463 755.92C159.999 756.352 159.623 756.936 159.335 757.672C159.063 758.408 158.887 759.232 158.807 760.144V766H156.623ZM182.506 766.312C181.45 766.312 180.546 766.032 179.794 765.472C179.042 764.912 178.466 764.144 178.066 763.168C177.682 762.192 177.49 761.072 177.49 759.808C177.49 758.544 177.682 757.424 178.066 756.448C178.45 755.472 179.01 754.704 179.746 754.144C180.482 753.584 181.386 753.304 182.458 753.304C183.338 753.304 184.058 753.488 184.618 753.856C185.178 754.224 185.626 754.704 185.962 755.296C186.314 755.872 186.57 756.504 186.73 757.192H187.162C187.082 756.728 187.01 756.248 186.946 755.752C186.882 755.24 186.826 754.744 186.778 754.264C186.73 753.768 186.706 753.328 186.706 752.944V749.2H188.914V759.88V766H186.946L187.066 762.64H186.682C186.49 763.36 186.218 764 185.866 764.56C185.514 765.104 185.066 765.536 184.522 765.856C183.978 766.16 183.306 766.312 182.506 766.312ZM183.01 764.392C183.586 764.392 184.106 764.256 184.57 763.984C185.034 763.712 185.426 763.36 185.746 762.928C186.066 762.48 186.306 762 186.466 761.488C186.642 760.976 186.73 760.48 186.73 760V759.712C186.73 759.376 186.682 759.016 186.586 758.632C186.49 758.232 186.346 757.832 186.154 757.432C185.978 757.032 185.738 756.664 185.434 756.328C185.146 755.976 184.802 755.704 184.402 755.512C184.002 755.304 183.554 755.2 183.058 755.2C182.338 755.2 181.73 755.408 181.234 755.824C180.754 756.224 180.386 756.776 180.13 757.48C179.89 758.184 179.77 758.976 179.77 759.856C179.77 760.768 179.898 761.568 180.154 762.256C180.41 762.928 180.778 763.456 181.258 763.84C181.754 764.208 182.338 764.392 183.01 764.392ZM198.044 766.312C197.068 766.312 196.204 766.168 195.452 765.88C194.716 765.576 194.092 765.144 193.58 764.584C193.068 764.024 192.684 763.36 192.428 762.592C192.172 761.824 192.044 760.96 192.044 760C192.044 759.024 192.172 758.128 192.428 757.312C192.684 756.496 193.06 755.784 193.556 755.176C194.052 754.568 194.66 754.104 195.38 753.784C196.1 753.448 196.924 753.28 197.852 753.28C198.668 753.28 199.412 753.416 200.084 753.688C200.756 753.96 201.324 754.384 201.788 754.96C202.268 755.52 202.628 756.232 202.868 757.096C203.108 757.944 203.204 758.944 203.156 760.096L193.412 760.168V758.68L201.836 758.608L201.092 759.616C201.172 758.608 201.076 757.776 200.804 757.12C200.532 756.464 200.14 755.968 199.628 755.632C199.132 755.296 198.54 755.128 197.852 755.128C197.116 755.128 196.468 755.32 195.908 755.704C195.348 756.088 194.916 756.64 194.612 757.36C194.324 758.08 194.18 758.952 194.18 759.976C194.18 761.448 194.508 762.576 195.164 763.36C195.82 764.128 196.796 764.512 198.092 764.512C198.588 764.512 199.02 764.456 199.388 764.344C199.772 764.216 200.092 764.048 200.348 763.84C200.62 763.616 200.836 763.36 200.996 763.072C201.172 762.784 201.308 762.472 201.404 762.136L203.324 762.592C203.18 763.168 202.956 763.688 202.652 764.152C202.364 764.6 201.996 764.984 201.548 765.304C201.116 765.624 200.612 765.872 200.036 766.048C199.46 766.224 198.796 766.312 198.044 766.312ZM211.059 766.312C210.195 766.312 209.427 766.216 208.755 766.024C208.083 765.848 207.523 765.592 207.075 765.256C206.627 764.904 206.283 764.488 206.043 764.008C205.803 763.528 205.675 763 205.659 762.424L207.507 761.944C207.475 762.472 207.603 762.936 207.891 763.336C208.195 763.72 208.619 764.016 209.163 764.224C209.723 764.432 210.395 764.536 211.179 764.536C212.123 764.536 212.851 764.376 213.363 764.056C213.891 763.736 214.155 763.296 214.155 762.736C214.155 762.288 214.011 761.944 213.723 761.704C213.435 761.448 213.035 761.248 212.523 761.104C212.027 760.944 211.435 760.8 210.747 760.672C210.171 760.544 209.595 760.4 209.019 760.24C208.443 760.08 207.915 759.872 207.435 759.616C206.971 759.344 206.595 758.992 206.307 758.56C206.019 758.128 205.875 757.592 205.875 756.952C205.875 756.2 206.075 755.552 206.475 755.008C206.875 754.464 207.443 754.04 208.179 753.736C208.915 753.432 209.795 753.28 210.819 753.28C211.843 753.28 212.715 753.44 213.435 753.76C214.155 754.064 214.723 754.496 215.139 755.056C215.555 755.616 215.787 756.272 215.835 757.024L213.939 757.504C213.923 756.976 213.779 756.528 213.507 756.16C213.251 755.792 212.883 755.52 212.403 755.344C211.923 755.152 211.363 755.056 210.723 755.056C209.875 755.056 209.203 755.216 208.707 755.536C208.211 755.856 207.963 756.296 207.963 756.856C207.963 757.272 208.107 757.608 208.395 757.864C208.699 758.12 209.107 758.32 209.619 758.464C210.131 758.608 210.699 758.752 211.323 758.896C211.963 759.024 212.571 759.168 213.147 759.328C213.739 759.488 214.267 759.696 214.731 759.952C215.195 760.208 215.563 760.552 215.835 760.984C216.107 761.4 216.243 761.936 216.243 762.592C216.243 763.408 216.027 764.096 215.595 764.656C215.163 765.2 214.555 765.616 213.771 765.904C213.003 766.176 212.099 766.312 211.059 766.312ZM219.225 766V753.592H221.409V766H219.225ZM220.329 751.432C219.817 751.432 219.433 751.328 219.177 751.12C218.921 750.912 218.793 750.6 218.793 750.184C218.793 749.768 218.921 749.456 219.177 749.248C219.433 749.04 219.809 748.936 220.305 748.936C220.817 748.936 221.201 749.04 221.457 749.248C221.713 749.456 221.841 749.768 221.841 750.184C221.841 750.584 221.713 750.896 221.457 751.12C221.201 751.328 220.825 751.432 220.329 751.432ZM229.833 770.2C228.521 770.2 227.441 770.096 226.593 769.888C225.761 769.696 225.145 769.392 224.745 768.976C224.345 768.576 224.145 768.072 224.145 767.464C224.145 766.728 224.433 766.12 225.009 765.64C225.585 765.16 226.457 764.84 227.625 764.68V764.248C226.777 764.248 226.137 764.144 225.705 763.936C225.273 763.728 225.057 763.416 225.057 763C225.057 762.568 225.273 762.208 225.705 761.92C226.137 761.616 226.841 761.336 227.817 761.08V760.624C226.841 760.608 226.097 760.32 225.585 759.76C225.073 759.184 224.817 758.44 224.817 757.528C224.817 756.712 225.033 756.008 225.465 755.416C225.913 754.808 226.553 754.344 227.385 754.024C228.233 753.688 229.241 753.52 230.409 753.52H236.265V755.368L232.425 754.768V755.224C233.353 755.416 234.065 755.744 234.561 756.208C235.057 756.656 235.305 757.264 235.305 758.032C235.305 758.72 235.105 759.32 234.705 759.832C234.305 760.344 233.713 760.744 232.929 761.032C232.161 761.304 231.209 761.44 230.073 761.44C229.849 761.44 229.609 761.432 229.353 761.416C229.113 761.384 228.793 761.336 228.393 761.272C227.961 761.544 227.609 761.792 227.337 762.016C227.081 762.24 226.953 762.44 226.953 762.616C226.953 762.792 227.073 762.936 227.313 763.048C227.569 763.144 227.873 763.208 228.225 763.24C228.577 763.272 228.905 763.288 229.209 763.288H232.017C232.337 763.288 232.737 763.32 233.217 763.384C233.713 763.448 234.201 763.584 234.681 763.792C235.177 764 235.593 764.32 235.929 764.752C236.265 765.184 236.433 765.784 236.433 766.552C236.433 767.416 236.177 768.12 235.665 768.664C235.153 769.208 234.409 769.6 233.433 769.84C232.457 770.08 231.257 770.2 229.833 770.2ZM229.881 768.4C230.953 768.4 231.817 768.328 232.473 768.184C233.145 768.056 233.633 767.848 233.937 767.56C234.257 767.272 234.417 766.904 234.417 766.456C234.417 766.04 234.305 765.72 234.081 765.496C233.873 765.256 233.609 765.088 233.289 764.992C232.969 764.896 232.649 764.84 232.329 764.824C232.009 764.792 231.737 764.776 231.513 764.776H228.705C227.777 764.984 227.137 765.272 226.785 765.64C226.433 766.008 226.257 766.4 226.257 766.816C226.257 767.264 226.417 767.6 226.737 767.824C227.057 768.048 227.489 768.2 228.033 768.28C228.593 768.36 229.209 768.4 229.881 768.4ZM230.169 760.024C231.177 760.024 231.937 759.816 232.449 759.4C232.961 758.984 233.217 758.424 233.217 757.72C233.217 756.968 232.953 756.352 232.425 755.872C231.913 755.376 231.137 755.128 230.097 755.128C229.089 755.128 228.313 755.36 227.769 755.824C227.241 756.288 226.977 756.888 226.977 757.624C226.977 758.104 227.097 758.528 227.337 758.896C227.593 759.248 227.953 759.528 228.417 759.736C228.897 759.928 229.481 760.024 230.169 760.024ZM239.169 766V758.296V753.592H241.137L240.921 757.528H241.329C241.553 756.552 241.849 755.752 242.217 755.128C242.601 754.504 243.081 754.04 243.657 753.736C244.233 753.432 244.905 753.28 245.673 753.28C247.049 753.28 248.089 753.776 248.793 754.768C249.513 755.744 249.873 757.208 249.873 759.16V766H247.665V759.352C247.665 757.944 247.441 756.904 246.993 756.232C246.561 755.56 245.921 755.224 245.073 755.224C244.305 755.224 243.649 755.464 243.105 755.944C242.577 756.424 242.161 757.056 241.857 757.84C241.553 758.624 241.385 759.472 241.353 760.384V766H239.169ZM258.074 766.312C257.21 766.312 256.442 766.216 255.77 766.024C255.098 765.848 254.538 765.592 254.09 765.256C253.642 764.904 253.298 764.488 253.058 764.008C252.818 763.528 252.69 763 252.674 762.424L254.522 761.944C254.49 762.472 254.618 762.936 254.906 763.336C255.21 763.72 255.634 764.016 256.178 764.224C256.738 764.432 257.41 764.536 258.194 764.536C259.138 764.536 259.866 764.376 260.378 764.056C260.906 763.736 261.17 763.296 261.17 762.736C261.17 762.288 261.026 761.944 260.738 761.704C260.45 761.448 260.05 761.248 259.538 761.104C259.042 760.944 258.45 760.8 257.762 760.672C257.186 760.544 256.61 760.4 256.034 760.24C255.458 760.08 254.93 759.872 254.45 759.616C253.986 759.344 253.61 758.992 253.322 758.56C253.034 758.128 252.89 757.592 252.89 756.952C252.89 756.2 253.09 755.552 253.49 755.008C253.89 754.464 254.458 754.04 255.194 753.736C255.93 753.432 256.81 753.28 257.834 753.28C258.858 753.28 259.73 753.44 260.45 753.76C261.17 754.064 261.738 754.496 262.154 755.056C262.57 755.616 262.802 756.272 262.85 757.024L260.954 757.504C260.938 756.976 260.794 756.528 260.522 756.16C260.266 755.792 259.898 755.52 259.418 755.344C258.938 755.152 258.378 755.056 257.738 755.056C256.89 755.056 256.218 755.216 255.722 755.536C255.226 755.856 254.978 756.296 254.978 756.856C254.978 757.272 255.122 757.608 255.41 757.864C255.714 758.12 256.122 758.32 256.634 758.464C257.146 758.608 257.714 758.752 258.338 758.896C258.978 759.024 259.586 759.168 260.162 759.328C260.754 759.488 261.282 759.696 261.746 759.952C262.21 760.208 262.578 760.552 262.85 760.984C263.122 761.4 263.258 761.936 263.258 762.592C263.258 763.408 263.042 764.096 262.61 764.656C262.178 765.2 261.57 765.616 260.786 765.904C260.018 766.176 259.114 766.312 258.074 766.312ZM266.643 766.288C266.131 766.288 265.747 766.176 265.491 765.952C265.235 765.728 265.107 765.368 265.107 764.872C265.107 764.392 265.235 764.04 265.491 763.816C265.747 763.592 266.131 763.48 266.643 763.48C267.171 763.48 267.563 763.592 267.819 763.816C268.091 764.04 268.227 764.4 268.227 764.896C268.227 765.824 267.699 766.288 266.643 766.288ZM275.81 766.312C274.722 766.312 273.794 766.136 273.026 765.784C272.274 765.432 271.658 764.96 271.178 764.368C270.714 763.776 270.37 763.096 270.146 762.328C269.938 761.56 269.834 760.76 269.834 759.928C269.834 759.016 269.954 758.16 270.194 757.36C270.434 756.56 270.794 755.856 271.274 755.248C271.77 754.624 272.378 754.144 273.098 753.808C273.834 753.456 274.69 753.28 275.666 753.28C276.61 753.28 277.442 753.448 278.162 753.784C278.882 754.104 279.466 754.56 279.914 755.152C280.378 755.744 280.674 756.448 280.802 757.264L278.714 757.84C278.682 757.392 278.546 756.96 278.306 756.544C278.082 756.128 277.746 755.792 277.298 755.536C276.85 755.264 276.298 755.128 275.642 755.128C275.018 755.128 274.482 755.248 274.034 755.488C273.602 755.728 273.234 756.064 272.93 756.496C272.642 756.928 272.418 757.432 272.258 758.008C272.114 758.584 272.042 759.208 272.042 759.88C272.042 760.808 272.17 761.616 272.426 762.304C272.698 762.992 273.114 763.528 273.674 763.912C274.234 764.296 274.954 764.488 275.834 764.488C276.49 764.488 277.05 764.376 277.514 764.152C277.978 763.912 278.346 763.584 278.618 763.168C278.89 762.736 279.066 762.232 279.146 761.656L281.162 762.112C281.05 762.8 280.842 763.408 280.538 763.936C280.234 764.464 279.85 764.904 279.386 765.256C278.922 765.592 278.386 765.848 277.778 766.024C277.186 766.216 276.53 766.312 275.81 766.312ZM288.982 766.312C287.798 766.312 286.75 766.056 285.838 765.544C284.942 765.016 284.238 764.264 283.726 763.288C283.23 762.312 282.982 761.128 282.982 759.736C282.982 758.296 283.246 757.104 283.774 756.16C284.318 755.2 285.038 754.48 285.934 754C286.83 753.52 287.83 753.28 288.934 753.28C290.086 753.28 291.11 753.536 292.006 754.048C292.918 754.544 293.638 755.28 294.166 756.256C294.694 757.216 294.958 758.408 294.958 759.832C294.958 761.256 294.694 762.448 294.166 763.408C293.654 764.368 292.942 765.096 292.03 765.592C291.134 766.072 290.118 766.312 288.982 766.312ZM289.078 764.512C289.846 764.512 290.502 764.328 291.046 763.96C291.606 763.576 292.03 763.04 292.318 762.352C292.622 761.664 292.774 760.848 292.774 759.904C292.774 758.928 292.614 758.088 292.294 757.384C291.99 756.664 291.55 756.112 290.974 755.728C290.398 755.328 289.702 755.128 288.886 755.128C288.15 755.128 287.502 755.304 286.942 755.656C286.382 756.008 285.95 756.528 285.646 757.216C285.342 757.888 285.19 758.712 285.19 759.688C285.19 761.192 285.534 762.376 286.222 763.24C286.926 764.088 287.878 764.512 289.078 764.512ZM298.068 766V758.32V753.592H300.012L299.796 757.528H300.204C300.412 756.584 300.692 755.8 301.044 755.176C301.396 754.536 301.828 754.064 302.34 753.76C302.868 753.44 303.468 753.28 304.14 753.28C304.94 753.28 305.596 753.48 306.108 753.88C306.62 754.264 306.996 754.768 307.236 755.392C307.492 756.016 307.62 756.704 307.62 757.456H308.004C308.18 756.56 308.452 755.8 308.82 755.176C309.188 754.552 309.644 754.08 310.188 753.76C310.732 753.44 311.356 753.28 312.06 753.28C312.7 753.28 313.26 753.408 313.74 753.664C314.22 753.92 314.628 754.304 314.964 754.816C315.3 755.312 315.548 755.928 315.708 756.664C315.868 757.4 315.948 758.248 315.948 759.208V766H313.764V759.496C313.764 758.552 313.676 757.768 313.5 757.144C313.324 756.504 313.06 756.032 312.708 755.728C312.372 755.408 311.94 755.248 311.412 755.248C310.82 755.248 310.284 755.456 309.804 755.872C309.34 756.272 308.956 756.84 308.652 757.576C308.364 758.296 308.172 759.12 308.076 760.048V766H305.94V759.712C305.94 758.72 305.852 757.896 305.676 757.24C305.5 756.584 305.236 756.088 304.884 755.752C304.548 755.416 304.108 755.248 303.564 755.248C302.924 755.248 302.372 755.472 301.908 755.92C301.444 756.352 301.068 756.936 300.78 757.672C300.508 758.408 300.332 759.232 300.252 760.144V766H298.068Z" fill="white"/>
<path d="M55.8191 349.584C53.6487 349.584 51.7009 349.292 49.9757 348.708C48.2504 348.123 46.7757 347.233 45.5513 346.037C44.3548 344.84 43.4365 343.379 42.7965 341.654C42.1843 339.901 41.8783 337.856 41.8783 335.518C41.8783 333.125 42.1983 331.024 42.8383 329.216C43.4783 327.407 44.3965 325.877 45.593 324.624C46.8174 323.372 48.2504 322.44 49.8922 321.828C51.5339 321.188 53.3565 320.868 55.36 320.868C56.9461 320.868 58.393 321.063 59.7009 321.452C61.0365 321.842 62.1913 322.426 63.1652 323.205C64.1391 323.957 64.8904 324.875 65.4191 325.96C65.9757 327.017 66.2678 328.228 66.2957 329.591L60.0765 331.303C60.0765 330.162 59.8261 329.23 59.3252 328.506C58.8522 327.783 58.24 327.24 57.4887 326.878C56.7652 326.489 55.9722 326.294 55.1096 326.294C54.4139 326.294 53.6904 326.447 52.9391 326.753C52.2157 327.031 51.5478 327.518 50.9357 328.214C50.3235 328.882 49.8365 329.772 49.4748 330.885C49.113 331.998 48.9322 333.39 48.9322 335.059C48.9322 337.23 49.2383 338.983 49.8504 340.318C50.4626 341.654 51.3113 342.642 52.3965 343.282C53.4817 343.894 54.6783 344.2 55.9861 344.2C57.433 344.2 58.5461 343.894 59.3252 343.282C60.1322 342.642 60.7026 341.849 61.0365 340.903C61.3704 339.957 61.5513 338.997 61.5791 338.023L67.4226 338.941C67.3948 340.443 67.1722 341.849 66.7548 343.157C66.3374 344.464 65.6696 345.605 64.7513 346.579C63.8609 347.525 62.6783 348.263 61.2035 348.791C59.7287 349.32 57.9339 349.584 55.8191 349.584ZM81.3038 349.584C79.0777 349.584 77.1021 349.153 75.3768 348.29C73.6795 347.428 72.3438 346.134 71.3699 344.409C70.396 342.683 69.909 340.527 69.909 337.939C69.909 335.351 70.396 333.209 71.3699 331.511C72.3438 329.786 73.6934 328.506 75.4186 327.671C77.1438 326.809 79.1195 326.377 81.3455 326.377C83.5716 326.377 85.5473 326.809 87.2725 327.671C88.9977 328.534 90.3473 329.828 91.3212 331.553C92.2951 333.25 92.7821 335.393 92.7821 337.981C92.7821 340.624 92.2812 342.809 91.2795 344.534C90.2777 346.259 88.9003 347.539 87.1473 348.374C85.4221 349.181 83.4742 349.584 81.3038 349.584ZM81.5125 344.701C82.5142 344.701 83.349 344.478 84.0168 344.033C84.6847 343.56 85.1855 342.85 85.5195 341.904C85.8534 340.958 86.0203 339.79 86.0203 338.398C86.0203 336.923 85.8395 335.685 85.4777 334.683C85.116 333.654 84.5734 332.875 83.8499 332.346C83.1542 331.79 82.2499 331.511 81.1368 331.511C80.1908 331.511 79.3699 331.748 78.6742 332.221C78.0064 332.666 77.5055 333.362 77.1716 334.308C76.8377 335.254 76.6708 336.437 76.6708 337.856C76.6708 340.137 77.0882 341.849 77.9229 342.99C78.7855 344.13 79.9821 344.701 81.5125 344.701ZM96.7183 349V335.727V326.962H102.144L102.228 333.431H103.063C103.424 331.873 103.939 330.565 104.607 329.508C105.275 328.45 106.123 327.671 107.153 327.17C108.183 326.642 109.393 326.377 110.784 326.377C113.372 326.377 115.334 327.282 116.67 329.09C118.033 330.899 118.715 333.779 118.715 337.73V349H111.953V338.482C111.953 336.2 111.619 334.544 110.951 333.515C110.311 332.457 109.351 331.929 108.071 331.929C107.014 331.929 106.137 332.249 105.442 332.889C104.774 333.529 104.273 334.377 103.939 335.435C103.605 336.492 103.438 337.675 103.438 338.983V349H96.7183ZM132.056 349.543C129.468 349.543 127.562 348.861 126.337 347.497C125.113 346.106 124.501 343.894 124.501 340.861V332.221H121.37L121.496 327.003H123.75C124.64 326.976 125.308 326.837 125.753 326.586C126.226 326.336 126.518 325.863 126.63 325.167L127.172 322.078H130.97V326.962H136.271V332.43H130.97V340.569C130.97 341.515 131.193 342.21 131.638 342.656C132.111 343.101 132.821 343.323 133.767 343.323C134.296 343.323 134.797 343.268 135.27 343.157C135.743 343.045 136.132 342.892 136.438 342.697V348.917C135.548 349.195 134.727 349.362 133.976 349.417C133.252 349.501 132.612 349.543 132.056 349.543ZM145.59 349.584C144.365 349.584 143.28 349.348 142.334 348.875C141.388 348.374 140.65 347.664 140.122 346.746C139.593 345.8 139.329 344.659 139.329 343.323C139.329 342.071 139.565 341.042 140.038 340.235C140.539 339.4 141.249 338.746 142.167 338.273C143.113 337.772 144.24 337.369 145.548 337.063C146.856 336.729 148.344 336.437 150.014 336.186C150.821 336.047 151.489 335.922 152.017 335.81C152.574 335.671 152.991 335.463 153.27 335.184C153.548 334.906 153.687 334.503 153.687 333.974C153.687 333.278 153.437 332.68 152.936 332.179C152.435 331.678 151.628 331.428 150.515 331.428C149.736 331.428 149.026 331.567 148.386 331.845C147.774 332.123 147.245 332.527 146.8 333.056C146.355 333.584 146.021 334.224 145.798 334.976L139.871 333.223C140.233 332.054 140.734 331.038 141.374 330.176C142.042 329.313 142.835 328.603 143.753 328.047C144.671 327.463 145.715 327.045 146.883 326.795C148.08 326.517 149.346 326.377 150.682 326.377C152.908 326.377 154.717 326.739 156.108 327.463C157.527 328.158 158.57 329.257 159.238 330.76C159.934 332.235 160.282 334.141 160.282 336.478V339.859C160.282 340.861 160.296 341.877 160.323 342.906C160.379 343.908 160.435 344.923 160.49 345.953C160.574 346.955 160.671 347.97 160.783 349H154.856C154.744 348.36 154.633 347.595 154.522 346.704C154.41 345.786 154.327 344.854 154.271 343.908H153.478C153.089 344.965 152.518 345.939 151.767 346.83C151.043 347.692 150.153 348.374 149.096 348.875C148.066 349.348 146.897 349.584 145.59 349.584ZM148.637 344.826C149.137 344.826 149.638 344.743 150.139 344.576C150.668 344.381 151.169 344.13 151.642 343.824C152.115 343.49 152.546 343.087 152.936 342.614C153.325 342.141 153.617 341.626 153.812 341.07L153.729 337.772L154.647 337.981C154.118 338.315 153.534 338.579 152.894 338.774C152.254 338.969 151.6 339.122 150.932 339.233C150.292 339.344 149.652 339.47 149.012 339.609C148.4 339.72 147.843 339.873 147.343 340.068C146.87 340.263 146.494 340.527 146.216 340.861C145.937 341.195 145.798 341.654 145.798 342.238C145.798 343.017 146.063 343.643 146.591 344.117C147.12 344.59 147.802 344.826 148.637 344.826ZM175.63 349.584C173.738 349.584 172.069 349.32 170.622 348.791C169.175 348.263 167.964 347.511 166.99 346.537C166.016 345.536 165.265 344.339 164.736 342.948C164.236 341.557 163.985 339.998 163.985 338.273C163.985 336.492 164.236 334.878 164.736 333.431C165.265 331.984 166.016 330.732 166.99 329.675C167.964 328.617 169.161 327.81 170.58 327.254C171.999 326.67 173.627 326.377 175.463 326.377C177.3 326.377 178.886 326.67 180.222 327.254C181.557 327.838 182.642 328.659 183.477 329.717C184.34 330.774 184.924 331.998 185.23 333.39L179.011 335.477C178.928 334.558 178.705 333.807 178.343 333.223C177.982 332.638 177.509 332.221 176.924 331.97C176.368 331.692 175.756 331.553 175.088 331.553C174.392 331.553 173.78 331.692 173.251 331.97C172.722 332.249 172.277 332.666 171.916 333.223C171.554 333.779 171.276 334.461 171.081 335.268C170.886 336.047 170.789 336.951 170.789 337.981C170.789 339.456 170.969 340.694 171.331 341.696C171.721 342.67 172.277 343.407 173.001 343.908C173.752 344.409 174.656 344.659 175.714 344.659C176.799 344.659 177.648 344.437 178.26 343.991C178.872 343.546 179.317 343.003 179.596 342.363C179.874 341.696 180.041 341.042 180.096 340.402L185.94 341.696C185.829 342.725 185.55 343.727 185.105 344.701C184.688 345.647 184.062 346.496 183.227 347.247C182.392 347.97 181.349 348.541 180.096 348.958C178.872 349.376 177.383 349.584 175.63 349.584ZM197.681 349.543C195.093 349.543 193.187 348.861 191.962 347.497C190.738 346.106 190.126 343.894 190.126 340.861V332.221H186.995L187.121 327.003H189.375C190.265 326.976 190.933 326.837 191.378 326.586C191.851 326.336 192.143 325.863 192.255 325.167L192.797 322.078H196.595V326.962H201.896V332.43H196.595V340.569C196.595 341.515 196.818 342.21 197.263 342.656C197.736 343.101 198.446 343.323 199.392 343.323C199.921 343.323 200.422 343.268 200.895 343.157C201.368 343.045 201.757 342.892 202.063 342.697V348.917C201.173 349.195 200.352 349.362 199.601 349.417C198.877 349.501 198.237 349.543 197.681 349.543ZM228.105 349.584C226.352 349.584 224.793 349.403 223.43 349.042C222.066 348.708 220.884 348.207 219.882 347.539C218.88 346.871 218.045 346.064 217.378 345.118C216.738 344.172 216.251 343.115 215.917 341.946C215.611 340.75 215.458 339.456 215.458 338.064V321.452H222.219V337.856C222.219 339.191 222.428 340.29 222.845 341.153C223.263 342.016 223.903 342.656 224.765 343.073C225.628 343.463 226.727 343.657 228.063 343.657C229.398 343.657 230.498 343.463 231.36 343.073C232.223 342.656 232.863 342.016 233.28 341.153C233.698 340.29 233.906 339.191 233.906 337.856V321.452H240.626V338.064C240.626 341.71 239.583 344.548 237.496 346.579C235.437 348.583 232.306 349.584 228.105 349.584ZM254.878 349.584C253.403 349.584 252.067 349.445 250.871 349.167C249.674 348.917 248.631 348.541 247.741 348.04C246.85 347.539 246.113 346.941 245.528 346.245C244.972 345.522 244.582 344.729 244.36 343.866L249.368 341.654C249.563 342.127 249.897 342.614 250.37 343.115C250.871 343.588 251.525 343.977 252.332 344.283C253.167 344.59 254.168 344.743 255.337 344.743C256.45 344.743 257.313 344.59 257.925 344.283C258.565 343.95 258.885 343.477 258.885 342.864C258.885 342.419 258.704 342.071 258.342 341.821C258.008 341.543 257.494 341.306 256.798 341.111C256.102 340.889 255.24 340.68 254.21 340.485C253.153 340.263 252.081 340.012 250.996 339.734C249.911 339.428 248.895 339.024 247.949 338.523C247.003 337.995 246.238 337.313 245.654 336.478C245.097 335.616 244.819 334.53 244.819 333.223C244.819 331.859 245.181 330.677 245.904 329.675C246.627 328.645 247.699 327.838 249.118 327.254C250.565 326.67 252.318 326.377 254.377 326.377C256.214 326.377 257.827 326.614 259.219 327.087C260.61 327.56 261.765 328.242 262.683 329.132C263.629 329.995 264.283 331.038 264.645 332.263L259.261 334.183C259.121 333.57 258.829 333.042 258.384 332.597C257.967 332.151 257.424 331.817 256.756 331.595C256.116 331.344 255.351 331.219 254.461 331.219C253.375 331.219 252.527 331.386 251.914 331.72C251.33 332.054 251.038 332.499 251.038 333.056C251.038 333.501 251.233 333.877 251.622 334.183C252.04 334.461 252.624 334.697 253.375 334.892C254.127 335.087 255.017 335.296 256.047 335.518C257.132 335.741 258.203 336.005 259.261 336.311C260.346 336.59 261.32 336.979 262.182 337.48C263.073 337.953 263.768 338.593 264.269 339.4C264.798 340.179 265.062 341.195 265.062 342.447C265.062 343.922 264.673 345.202 263.894 346.287C263.114 347.344 261.96 348.165 260.429 348.75C258.927 349.306 257.076 349.584 254.878 349.584Z" fill="white"/>
<path d="M51.8317 806.083C51.8313 806.835 51.5325 807.555 51.0008 808.086C50.4692 808.617 49.7484 808.916 48.997 808.915C48.2455 808.915 47.525 808.616 46.9939 808.084C46.4628 807.553 46.1647 806.832 46.165 806.08C46.1654 805.329 46.4643 804.608 46.9959 804.077C47.5275 803.546 48.2483 803.248 48.9998 803.249C49.7512 803.249 50.4718 803.548 51.0028 804.079C51.5339 804.611 51.8321 805.332 51.8317 806.083ZM51.9167 811.013H46.25V828.75H51.9167V811.013ZM60.87 811.013H55.2317V828.75H60.8134V819.442C60.8134 814.257 67.5709 813.776 67.5709 819.442V828.75H73.1667V817.516C73.1667 808.775 63.165 809.101 60.8134 813.393L60.87 811.013Z" fill="white"/>
<path d="M116.025 808.828L120.698 804.025L123.41 806.802L118.51 811.474H125.403V815.33H118.476L123.41 820.123L120.698 822.846L114.001 816.115L107.303 822.846L104.591 820.133L109.525 815.341H102.597V811.474H109.491L104.591 806.803L107.302 804.025L111.975 808.828V802H116.025V808.828ZM111.975 820.852H116.025V830H111.975V820.852Z" fill="white"/>
<rect x="40" y="567" width="426" height="3" fill="#734DFF"/>
<path d="M182.125 259.75L191.5 269.125L200.875 259.75" stroke="white" stroke-width="4.6875" stroke-linecap="round" stroke-linejoin="round"/>
<defs>
<clipPath id="clip0_80_108">
<rect width="57.7318" height="57.7318" fill="white" transform="translate(97.7319 59.2791) rotate(90)"/>
</clipPath>
<clipPath id="clip1_80_108">
<rect width="18.8707" height="18.8707" fill="white" transform="translate(59.6411 78.92)"/>
</clipPath>
</defs>
</svg>
