<svg width="1440" height="120" viewBox="0 0 1440 120" fill="none" xmlns="http://www.w3.org/2000/svg">
<g clip-path="url(#clip0_285_105)">
<rect width="1440" height="120" fill="white"/>
<path d="M571.399 51.1101C550.754 70.963 562.797 107.988 571.399 124.018L691.321 151.259C749.516 150.46 943.62 151.927 968.502 119.25C999.604 78.4028 896.253 -43.4194 848.452 -93.9075C800.65 -144.395 774.818 -44.2181 753.552 -28.1875C732.286 -12.1568 761.901 39.9 734.582 28.69C707.264 17.4799 690.661 13.7576 684.376 22.7855C678.091 31.8134 686.807 61.6071 679.945 73.5587C667.055 96.0074 597.205 26.294 571.399 51.1101Z" fill="#734DFF"/>
<path d="M571.399 124.018L571.371 124.033L571.378 124.046L571.392 124.049L571.399 124.018ZM571.399 51.1101L571.377 51.0876L571.377 51.0876L571.399 51.1101ZM679.945 73.5587L679.918 73.5432L679.945 73.5587ZM684.376 22.7855L684.402 22.8033L684.402 22.8033L684.376 22.7855ZM734.582 28.69L734.594 28.6611L734.594 28.6611L734.582 28.69ZM848.452 -93.9075L848.429 -93.886L848.429 -93.886L848.452 -93.9075ZM968.502 119.25L968.477 119.231L968.477 119.231L968.502 119.25ZM691.321 151.259L691.314 151.29L691.321 151.29L691.321 151.259ZM571.399 124.018L571.426 124.003C567.127 115.991 561.967 102.731 560.463 88.9941C558.958 75.257 561.108 61.0495 571.421 51.1326L571.399 51.1101L571.377 51.0876C561.045 61.0237 558.895 75.2549 560.4 89.0009C561.906 102.747 567.069 116.015 571.371 124.033L571.399 124.018ZM571.399 51.1101L571.421 51.1326C577.86 44.9402 587.05 44.6412 597.426 47.3355C607.8 50.0296 619.351 55.7141 630.501 61.4744C641.649 67.2337 652.398 73.0694 661.166 76.0615C665.549 77.5575 669.441 78.3439 672.641 78.0526C675.844 77.7612 678.355 76.3905 679.972 73.5743L679.945 73.5587L679.918 73.5432C678.312 76.3391 675.821 77.7005 672.636 77.9904C669.448 78.2804 665.567 77.4974 661.186 76.0023C652.424 73.0122 641.681 67.1797 630.53 61.4188C619.38 55.6589 607.824 49.9711 597.441 47.275C587.059 44.579 577.841 44.872 571.377 51.0876L571.399 51.1101ZM679.945 73.5587L679.972 73.5743C681.691 70.5798 682.433 66.4707 682.68 61.8545C682.926 57.2377 682.676 52.1092 682.408 47.074C682.14 42.038 681.855 37.0956 682.029 32.848C682.203 28.599 682.836 25.0523 684.402 22.8033L684.376 22.7855L684.351 22.7676C682.774 25.0326 682.14 28.5955 681.966 32.8455C681.792 37.0967 682.078 42.0425 682.346 47.0773C682.614 52.113 682.863 57.2382 682.617 61.8512C682.371 66.4648 681.629 70.5618 679.918 73.5432L679.945 73.5587ZM684.376 22.7855L684.402 22.8033C687.534 18.3045 693.239 16.9765 701.587 18.1794C709.934 19.3822 720.911 23.1139 734.571 28.7189L734.582 28.69L734.594 28.6611C720.935 23.056 709.951 19.3215 701.596 18.1176C693.242 16.9138 687.504 18.2385 684.351 22.7676L684.376 22.7855ZM734.582 28.69L734.571 28.7189C737.987 30.1209 740.52 30.5365 742.375 30.1527C744.234 29.7682 745.408 28.5828 746.11 26.7979C746.811 25.0149 747.041 22.6321 747.014 19.8464C746.986 17.0602 746.701 13.8676 746.368 10.4635C745.702 3.654 744.848 -4.00228 745.489 -10.9581C746.129 -17.9138 748.264 -24.1625 753.57 -28.1625L753.552 -28.1875L753.533 -28.2124C748.206 -24.1971 746.068 -17.9272 745.427 -10.9639C744.785 -4.00077 745.64 3.66229 746.306 10.4696C746.638 13.8739 746.924 17.064 746.951 19.847C746.979 22.6307 746.748 25.0036 746.052 26.775C745.356 28.5445 744.196 29.7121 742.362 30.0915C740.525 30.4715 738.007 30.0616 734.594 28.6611L734.582 28.69ZM753.552 -28.1875L753.57 -28.1625C756.233 -30.1695 758.965 -33.4917 761.8 -37.6672C764.636 -41.8431 767.577 -46.875 770.656 -52.3036C776.816 -63.1616 783.532 -75.6068 791.076 -85.9736C798.621 -96.3412 806.991 -104.623 816.456 -107.162C825.917 -109.701 836.483 -106.503 848.429 -93.886L848.452 -93.9075L848.474 -93.9289C836.519 -106.556 825.931 -109.769 816.44 -107.223C806.953 -104.678 798.572 -96.3799 791.026 -86.0104C783.478 -75.6399 776.761 -63.1905 770.602 -52.3344C767.522 -46.9059 764.583 -41.8759 761.749 -37.7023C758.914 -33.5281 756.187 -30.213 753.533 -28.2124L753.552 -28.1875ZM848.452 -93.9075L848.429 -93.886C872.329 -68.6426 910.116 -25.5664 938.039 16.3039C952.001 37.2392 963.496 57.8715 969.557 75.8215C975.619 93.7733 976.242 109.032 968.477 119.231L968.502 119.25L968.527 119.269C976.312 109.044 975.68 93.7572 969.617 75.8015C963.553 57.8439 952.054 37.2063 938.091 16.2692C910.165 -25.6053 872.375 -68.6843 848.474 -93.9289L848.452 -93.9075ZM968.502 119.25L968.477 119.231C965.372 123.308 959.624 126.857 951.823 129.945C944.023 133.033 934.175 135.659 922.873 137.894C900.27 142.364 871.857 145.269 842.402 147.178C783.492 150.995 720.419 150.828 691.32 151.228L691.321 151.259L691.321 151.29C720.418 150.891 783.494 151.058 842.406 147.24C871.862 145.331 900.278 142.426 922.885 137.955C934.189 135.72 944.041 133.093 951.846 130.003C959.65 126.914 965.411 123.36 968.527 119.269L968.502 119.25ZM691.321 151.259L691.328 151.229L571.406 123.988L571.399 124.018L571.392 124.049L691.314 151.289L691.321 151.259Z" fill="#734DFF"/>
<path d="M-32.6819 59.9632C-67.686 56.323 -76.6586 9.46419 -45.4754 -6.84963L19.4787 -40.831C40.5824 -51.8716 66.359 -39.4264 70.8382 -16.0341L78.7969 25.5296C83.2761 48.9219 63.9203 70.0091 40.2308 67.5456L-32.6819 59.9632Z" fill="#734DFF"/>
<rect x="899" width="541" height="127" fill="#734DFF"/>
</g>
<defs>
<clipPath id="clip0_285_105">
<rect width="1440" height="120" fill="white"/>
</clipPath>
</defs>
</svg>
