<svg width="320" height="49" viewBox="0 0 320 49" fill="none" xmlns="http://www.w3.org/2000/svg">
<g clip-path="url(#clip0_451_175)">
<rect width="320" height="49" fill="#F8F6FF"/>
<path d="M168.534 14.3724C159.14 22.9197 167.621 48.5649 171 56L218.363 62.2189C243.631 63.0859 297.047 61.2547 308.562 46.9941C322.956 29.1683 311.567 -21.5431 291.938 -45.3968C272.308 -69.2505 258.895 -24.4677 249.315 -17.6631C239.734 -10.8585 251.439 13.3213 239.832 7.67231C228.225 2.02336 221.103 -0.0113675 218.178 3.94089C215.252 7.89315 218.378 21.5581 215.137 26.8211C209.051 36.7066 180.277 3.68839 168.534 14.3724Z" fill="#734DFF"/>
<path d="M171 56L170.975 56.0112L170.998 56.0141L171 56ZM168.534 14.3724L168.544 14.383L168.544 14.383L168.534 14.3724ZM215.137 26.8211L215.125 26.8137L215.125 26.8137L215.137 26.8211ZM249.315 -17.6631L249.323 -17.6515L249.323 -17.6515L249.315 -17.6631ZM308.562 46.9941L308.573 47.0031L308.573 47.0031L308.562 46.9941ZM218.363 62.2189L218.361 62.2331L218.363 62.2332L218.363 62.2189ZM171 56L171.013 55.9941C169.324 52.2775 166.359 44.0087 164.991 35.601C164.307 31.3972 164.022 27.1594 164.495 23.4389C164.968 19.7182 166.199 16.5166 168.544 14.383L168.534 14.3724L168.525 14.3619C166.172 16.5019 164.94 19.7111 164.467 23.4353C163.993 27.1595 164.278 31.4003 164.963 35.6056C166.331 44.0161 169.297 52.2874 170.987 56.0059L171 56ZM168.534 14.3724L168.544 14.383C171.474 11.7173 175.467 11.7759 179.91 13.2139C184.352 14.6519 189.238 17.4677 193.95 20.3095C198.66 23.1508 203.195 26.0183 206.934 27.5572C208.803 28.3266 210.474 28.7647 211.87 28.7005C213.266 28.6362 214.386 28.0688 215.149 26.8286L215.137 26.8211L215.125 26.8137C214.367 28.0448 213.256 28.6081 211.868 28.672C210.479 28.7359 208.812 28.2997 206.945 27.5308C203.209 25.993 198.676 23.1272 193.964 20.2851C189.253 17.4435 184.364 14.6259 179.918 13.1868C175.473 11.7477 171.466 11.6856 168.525 14.3619L168.534 14.3724ZM215.137 26.8211L215.149 26.8286C215.961 25.51 216.374 23.6665 216.582 21.583C216.791 19.4992 216.795 17.1734 216.79 14.8894C216.785 12.6051 216.769 10.3628 216.938 8.44443C217.107 6.52549 217.46 4.93398 218.189 3.94938L218.178 3.94089L218.166 3.9324C217.432 4.92393 217.079 6.52264 216.91 8.44192C216.741 10.3618 216.756 12.6057 216.761 14.8895C216.767 17.1737 216.762 19.498 216.554 21.5801C216.346 23.6625 215.934 25.5007 215.125 26.8137L215.137 26.8211ZM218.178 3.94089L218.189 3.94938C219.647 1.9801 222.151 1.4997 225.747 2.22014C229.342 2.94051 234.022 4.8607 239.826 7.68513L239.832 7.67231L239.838 7.65948C234.035 4.83497 229.351 2.91332 225.752 2.19216C222.154 1.47105 219.634 1.94942 218.166 3.9324L218.178 3.94089ZM239.832 7.67231L239.826 7.68513C241.277 8.39167 242.367 8.63328 243.181 8.49871C243.997 8.3639 244.532 7.85205 244.876 7.05938C245.219 6.26748 245.372 5.19422 245.421 3.93322C245.471 2.67198 245.417 1.22135 245.347 -0.325938C245.209 -3.42112 245.007 -6.90349 245.438 -10.0374C245.869 -13.1713 246.932 -15.9536 249.323 -17.6515L249.315 -17.6631L249.306 -17.6747C246.907 -15.9702 245.841 -13.1784 245.409 -10.0413C244.978 -6.90423 245.18 -3.41887 245.319 -0.324659C245.388 1.22274 245.442 2.67223 245.393 3.93211C245.343 5.19224 245.191 6.26114 244.85 7.04803C244.509 7.83414 243.98 8.33771 243.177 8.47056C242.371 8.60366 241.288 8.36518 239.838 7.65948L239.832 7.67231ZM249.315 -17.6631L249.323 -17.6515C250.522 -18.5035 251.781 -19.949 253.103 -21.7785C254.425 -23.6081 255.812 -25.8229 257.268 -28.2142C260.18 -32.9972 263.367 -38.4866 266.869 -43.0181C270.371 -47.55 274.185 -51.1206 278.347 -52.0697C282.507 -53.0183 287.021 -51.3489 291.927 -45.3877L291.938 -45.3968L291.949 -45.4059C287.039 -51.3715 282.516 -53.0495 278.341 -52.0975C274.168 -51.146 270.349 -47.5682 266.846 -43.0356C263.343 -38.5025 260.155 -33.0112 257.243 -28.229C255.788 -25.8378 254.401 -23.6238 253.08 -21.7952C251.758 -19.9663 250.502 -18.5239 249.306 -17.6747L249.315 -17.6631ZM291.938 -45.3968L291.927 -45.3877C301.739 -33.4632 309.493 -14.8243 312.994 3.06186C314.745 12.0048 315.433 20.759 314.783 28.391C314.133 36.0233 312.147 42.5318 308.551 46.9851L308.562 46.9941L308.573 47.0031C312.174 42.5435 314.161 36.0285 314.811 28.3934C315.461 20.7581 314.773 12.0012 313.022 3.05638C309.521 -14.833 301.765 -33.4767 291.949 -45.4059L291.938 -45.3968ZM308.562 46.9941L308.551 46.9851C305.675 50.5468 300.181 53.3341 293.159 55.4975C286.139 57.6606 277.594 59.1993 268.618 60.2652C250.667 62.3971 230.997 62.6381 218.364 62.2046L218.363 62.2189L218.363 62.2332C230.997 62.6667 250.669 62.4256 268.621 60.2935C277.598 59.2275 286.145 57.6886 293.168 55.5247C300.19 53.3611 305.691 50.5717 308.573 47.0031L308.562 46.9941ZM218.363 62.2189L218.365 62.2048L171.002 55.9859L171 56L170.998 56.0141L218.361 62.233L218.363 62.2189Z" fill="#734DFF"/>
<path d="M-12.8004 23.4849C-26.5103 22.0592 -30.0246 3.70616 -17.8112 -2.68342L7.62915 -15.9928C15.8948 -20.317 25.9906 -15.4426 27.745 -6.28068L30.8621 9.99843C32.6165 19.1604 25.0355 27.4196 15.7571 26.4547L-12.8004 23.4849Z" fill="#734DFF"/>
<rect x="274" width="67" height="49" fill="#734DFF"/>
</g>
<defs>
<clipPath id="clip0_451_175">
<rect width="320" height="49" fill="white"/>
</clipPath>
</defs>
</svg>
