<svg width="375" height="56" viewBox="0 0 375 56" fill="none" xmlns="http://www.w3.org/2000/svg">
<g clip-path="url(#clip0_369_159)">
<rect width="376" height="57" transform="translate(-1 -1)" fill="white"/>
<path d="M199.415 28.6789C191.419 36.3749 196.083 50.7275 199.415 56.9417L245.86 67.5016C268.399 67.192 315.886 63.4059 325.523 50.7385C337.568 34.9043 325.23 -7.96539 306.716 -27.537C288.203 -47.1087 278.198 -8.27499 269.962 -2.06071C261.726 4.15356 273.196 24.3334 262.615 19.9878C252.035 15.6422 245.605 14.1993 243.171 17.6989C240.736 21.1986 244.112 32.7481 241.454 37.3811C236.462 46.0833 209.409 19.059 199.415 28.6789Z" fill="#734DFF"/>
<path d="M199.415 56.9417L199.4 56.9497L199.412 56.9525L199.415 56.9417ZM199.415 28.6789L199.407 28.671L199.407 28.671L199.415 28.6789ZM241.454 37.3811L241.445 37.3756L241.445 37.3756L241.454 37.3811ZM243.171 17.6989L243.161 17.6926L243.161 17.6926L243.171 17.6989ZM262.615 19.9878L262.611 19.998L262.611 19.998L262.615 19.9878ZM269.962 -2.06071L269.969 -2.05189L269.969 -2.05189L269.962 -2.06071ZM306.716 -27.537L306.708 -27.5294L306.708 -27.5294L306.716 -27.537ZM325.523 50.7385L325.514 50.7318L325.514 50.7318L325.523 50.7385ZM245.86 67.5016L245.858 67.5127L245.86 67.5126L245.86 67.5016ZM199.425 56.9365C197.759 53.8303 195.761 48.69 195.178 43.3648C194.595 38.0394 195.428 32.5315 199.422 28.6869L199.407 28.671C195.406 32.5224 194.573 38.0387 195.156 43.3672C195.739 48.6958 197.739 53.8389 199.405 56.947L199.425 56.9365ZM199.422 28.6869C201.917 26.286 205.477 26.1702 209.495 27.2147C213.513 28.2591 217.987 30.4627 222.305 32.6957C226.623 34.9283 230.786 37.1905 234.181 38.3503C235.879 38.9302 237.386 39.235 238.625 39.1221C239.866 39.0092 240.838 38.478 241.464 37.3866L241.445 37.3756C240.823 38.4598 239.857 38.9877 238.623 39.1001C237.389 39.2126 235.885 38.909 234.189 38.3294C230.795 37.1703 226.634 34.9092 222.315 32.6761C217.997 30.4432 213.522 28.2384 209.501 27.1933C205.48 26.1482 201.91 26.2619 199.407 28.671L199.422 28.6869ZM241.464 37.3866C242.13 36.2261 242.417 34.6334 242.512 32.8439C242.608 31.0543 242.511 29.0663 242.407 27.1144C242.304 25.1622 242.193 23.2463 242.26 21.5996C242.328 19.9525 242.573 18.5773 243.18 17.7052L243.161 17.6926C242.551 18.5703 242.306 19.9512 242.238 21.5987C242.171 23.2466 242.281 25.1638 242.385 27.1156C242.489 29.0677 242.586 31.0545 242.49 32.8428C242.395 34.6313 242.108 36.2197 241.445 37.3756L241.464 37.3866ZM243.18 17.7052C244.393 15.9608 246.603 15.446 249.836 15.9123C253.069 16.3786 257.321 17.8253 262.611 19.998L262.619 19.9776C257.329 17.8048 253.075 16.3571 249.84 15.8905C246.604 15.4238 244.382 15.9374 243.161 17.6926L243.18 17.7052ZM262.611 19.998C263.934 20.5415 264.915 20.7025 265.633 20.5538C266.352 20.4048 266.807 19.9456 267.079 19.2539C267.35 18.563 267.439 17.6394 267.429 16.5596C267.418 15.4796 267.307 14.242 267.179 12.9224C266.921 10.2827 266.59 7.31468 266.838 4.61812C267.086 1.92165 267.913 -0.501037 269.969 -2.05189L269.955 -2.06954C267.893 -0.513255 267.065 1.91689 266.816 4.6161C266.568 7.31522 266.899 10.2857 267.157 12.9246C267.285 14.2442 267.396 15.4809 267.407 16.5598C267.417 17.6389 267.328 18.559 267.058 19.2458C266.789 19.9321 266.339 20.385 265.629 20.5321C264.917 20.6795 263.941 20.5205 262.619 19.9776L262.611 19.998ZM269.969 -2.05189C271 -2.82981 272.058 -4.11752 273.156 -5.73611C274.254 -7.35487 275.393 -9.30547 276.586 -11.4099C278.971 -15.6189 281.572 -20.4434 284.494 -24.4621C287.416 -28.4811 290.658 -31.6919 294.324 -32.6764C297.989 -33.6604 302.082 -32.4207 306.708 -27.5294L306.724 -27.5446C302.094 -32.4392 297.994 -33.6846 294.318 -32.6977C290.645 -31.7112 287.399 -28.4948 284.476 -24.4751C281.553 -20.4551 278.952 -15.6291 276.566 -11.4208C275.374 -9.3164 274.235 -7.36649 273.137 -5.74853C272.04 -4.1304 270.983 -2.84519 269.955 -2.06954L269.969 -2.05189ZM306.708 -27.5294C315.963 -17.7453 323.676 -2.13685 327.568 13.005C329.515 20.5759 330.506 28.0295 330.258 34.5797C330.01 41.1301 328.523 46.7758 325.514 50.7318L325.531 50.7452C328.545 46.7841 330.032 41.1332 330.28 34.5806C330.528 28.0277 329.536 20.5718 327.59 12.9995C323.696 -2.14492 315.983 -17.7571 306.724 -27.5446L306.708 -27.5294ZM325.514 50.7318C323.107 53.8959 318.335 56.5068 312.176 58.6478C306.017 60.7887 298.475 62.459 290.528 63.7433C274.635 66.3118 257.129 67.3357 245.86 67.4905L245.86 67.5126C257.13 67.3578 274.637 66.3339 290.532 63.7651C298.479 62.4808 306.023 60.8101 312.183 58.6687C318.343 56.5274 323.12 53.9148 325.531 50.7452L325.514 50.7318ZM245.863 67.4908L199.417 56.9309L199.412 56.9525L245.858 67.5124L245.863 67.4908Z" fill="#734DFF"/>
<path d="M-9.4853 19.5874C-18.6253 18.6369 -20.9681 6.40152 -12.8258 2.1418L4.13445 -6.73111C9.64486 -9.61394 16.3754 -6.36436 17.545 -0.256376L19.6231 10.5964C20.7927 16.7044 15.7386 22.2105 9.55305 21.5672L-9.4853 19.5874Z" fill="#734DFF"/>
<rect x="273" y="-2.49841" width="201.635" height="63.4984" fill="#734DFF"/>
</g>
<defs>
<clipPath id="clip0_369_159">
<rect width="376" height="57" fill="white" transform="translate(-1 -1)"/>
</clipPath>
</defs>
</svg>
