<svg width="1440" height="100" viewBox="0 0 1440 100" fill="none" xmlns="http://www.w3.org/2000/svg">
<g clip-path="url(#clip0_285_105)">
<rect width="1440" height="100" fill="white"/>
<path d="M606.408 57.2823C587.558 75.4099 598.554 109.217 606.408 123.854L715.908 148.727C769.046 147.998 881.002 139.08 903.721 109.243C932.12 71.9458 903.03 -29.032 859.383 -75.1322C815.736 -121.232 792.148 -29.7612 772.731 -15.1237C753.313 -0.486259 780.355 47.0465 755.41 36.8106C730.465 26.5748 715.306 23.176 709.567 31.4193C703.828 39.6626 711.787 66.867 705.521 77.78C693.752 98.2777 629.971 34.6228 606.408 57.2823Z" fill="#734DFF"/>
<path d="M606.408 123.854L606.383 123.868L606.389 123.879L606.402 123.882L606.408 123.854ZM606.408 57.2823L606.388 57.2617L606.388 57.2617L606.408 57.2823ZM705.521 77.78L705.496 77.7658L705.496 77.7658L705.521 77.78ZM772.731 -15.1237L772.713 -15.1465L772.713 -15.1465L772.731 -15.1237ZM859.383 -75.1322L859.362 -75.1126L859.362 -75.1126L859.383 -75.1322ZM903.721 109.243L903.698 109.225L903.698 109.225L903.721 109.243ZM715.908 148.727L715.902 148.756L715.908 148.756L715.908 148.727ZM606.408 123.854L606.433 123.841C602.508 116.524 597.796 104.417 596.422 91.8739C595.048 79.3307 597.012 66.3578 606.428 57.3029L606.408 57.2823L606.388 57.2617C596.954 66.3343 594.991 79.3287 596.366 91.8801C597.741 104.432 602.455 116.546 606.383 123.868L606.408 123.854ZM606.408 57.2823L606.428 57.3029C612.308 51.6486 620.699 51.3756 630.173 53.8357C639.646 56.2957 650.193 61.4861 660.374 66.7458C670.554 72.0047 680.368 77.3332 688.374 80.0652C692.376 81.4312 695.93 82.1492 698.852 81.8833C701.776 81.6172 704.069 80.3657 705.545 77.7942L705.521 77.78L705.496 77.7658C704.03 80.3187 701.755 81.5618 698.847 81.8265C695.936 82.0913 692.392 81.3763 688.392 80.0112C680.392 77.281 670.582 71.9553 660.4 66.6951C650.22 61.4358 639.668 56.2423 630.187 53.7805C620.708 51.3188 612.29 51.5863 606.388 57.2617L606.408 57.2823ZM705.521 77.78L705.545 77.7942C707.115 75.06 707.793 71.308 708.018 67.0929C708.243 62.8773 708.015 58.1946 707.77 53.597C707.526 48.9986 707.265 44.4858 707.423 40.6073C707.582 36.7276 708.161 33.4891 709.59 31.4356L709.567 31.4193L709.544 31.403C708.104 33.4711 707.525 36.7244 707.366 40.605C707.208 44.4868 707.469 49.0027 707.713 53.6C707.958 58.1981 708.185 62.8778 707.961 67.0899C707.736 71.3025 707.059 75.0435 705.496 77.7658L705.521 77.78ZM709.567 31.4193L709.59 31.4356C712.45 27.3277 717.66 26.1152 725.282 27.2135C732.904 28.3118 742.927 31.7192 755.399 36.837L755.41 36.8106L755.421 36.7843C742.948 31.6663 732.919 28.2564 725.29 27.1571C717.662 26.0578 712.423 27.2675 709.544 31.403L709.567 31.4193ZM755.41 36.8106L755.399 36.837C758.519 38.1172 760.831 38.4966 762.525 38.1462C764.222 37.7951 765.295 36.7127 765.936 35.083C766.576 33.4549 766.786 31.2792 766.761 28.7357C766.736 26.1916 766.475 23.2764 766.171 20.1682C765.564 13.9505 764.784 6.95957 765.369 0.608223C765.953 -5.74291 767.903 -11.4486 772.748 -15.101L772.731 -15.1237L772.713 -15.1465C767.85 -11.4801 765.897 -5.75519 765.312 0.60299C764.726 6.96095 765.507 13.958 766.114 20.1737C766.418 23.2822 766.679 26.195 766.704 28.7362C766.729 31.2779 766.519 33.4446 765.883 35.0621C765.247 36.6778 764.188 37.7439 762.514 38.0903C760.836 38.4373 758.537 38.063 755.421 36.7843L755.41 36.8106ZM772.731 -15.1237L772.748 -15.101C775.179 -16.9336 777.673 -19.967 780.262 -23.7796C782.852 -27.5926 785.537 -32.1872 788.349 -37.144C793.973 -47.0584 800.105 -58.422 806.994 -67.8878C813.883 -77.3544 821.525 -84.9167 830.168 -87.2353C838.807 -89.5528 848.455 -86.6333 859.362 -75.1126L859.383 -75.1322L859.404 -75.1518C848.488 -86.6812 838.82 -89.6154 830.153 -87.2904C821.491 -84.9664 813.838 -77.3898 806.948 -67.9214C800.057 -58.4523 793.923 -47.0848 788.299 -37.1722C785.487 -32.2155 782.803 -27.6226 780.215 -23.8116C777.627 -20.0003 775.137 -16.9733 772.713 -15.1465L772.731 -15.1237ZM859.383 -75.1322L859.362 -75.1126C881.182 -52.0669 899.364 -15.3021 908.541 20.3636C913.13 38.1963 915.467 55.7529 914.883 71.1813C914.299 86.6102 910.793 99.9078 903.698 109.225L903.721 109.243L903.743 109.26C910.848 99.9293 914.356 86.6183 914.94 71.1835C915.525 55.7481 913.186 38.1859 908.597 20.3494C899.417 -15.323 881.231 -52.0973 859.404 -75.1518L859.383 -75.1322ZM903.721 109.243L903.698 109.225C898.024 116.678 886.774 122.827 872.254 127.87C857.735 132.913 839.952 136.848 821.217 139.873C783.748 145.923 742.476 148.334 715.908 148.699L715.908 148.727L715.908 148.756C742.478 148.391 783.753 145.98 821.226 139.929C839.962 136.904 857.749 132.968 872.272 127.924C886.794 122.881 898.058 116.727 903.743 109.26L903.721 109.243ZM715.908 148.727L715.914 148.7L606.415 123.826L606.408 123.854L606.402 123.882L715.902 148.755L715.908 148.727Z" fill="#734DFF"/>
<path d="M-32.6819 59.9632C-67.686 56.323 -76.6586 9.46419 -45.4754 -6.84963L19.4787 -40.831C40.5824 -51.8716 66.359 -39.4264 70.8382 -16.0341L78.7969 25.5296C83.2761 48.9219 63.9203 70.0091 40.2308 67.5456L-32.6819 59.9632Z" fill="#734DFF"/>
<rect x="899" width="541" height="127" fill="#734DFF"/>
</g>
<defs>
<clipPath id="clip0_285_105">
<rect width="1440" height="100" fill="white"/>
</clipPath>
</defs>
</svg>
