<svg width="1440" height="126" viewBox="0 0 1440 126" fill="none" xmlns="http://www.w3.org/2000/svg">
<g clip-path="url(#clip0_285_105)">
<rect width="1440" height="126" fill="white"/>
<path d="M511.101 88.2522C484.518 113.839 500.025 161.558 511.101 182.219L665.52 217.328C740.456 216.298 898.338 203.71 930.377 161.595C970.426 108.95 929.403 -33.5809 867.851 -98.6516C806.299 -163.722 773.035 -34.6102 745.652 -13.9493C718.269 6.71153 756.404 73.8042 721.226 59.3563C686.049 44.9084 664.67 40.1109 656.578 51.7464C648.485 63.3818 659.708 101.781 650.871 117.185C634.274 146.117 544.33 56.2682 511.101 88.2522Z" fill="#734DFF"/>
<path d="M511.101 182.219L511.068 182.236L511.076 182.251L511.093 182.255L511.101 182.219ZM511.101 88.2522L511.126 88.2786L511.126 88.2786L511.101 88.2522ZM650.871 117.185L650.903 117.203L650.903 117.203L650.871 117.185ZM656.578 51.7464L656.547 51.7254L656.547 51.7254L656.578 51.7464ZM721.226 59.3563L721.212 59.3903L721.212 59.3903L721.226 59.3563ZM745.652 -13.9493L745.674 -13.92L745.674 -13.92L745.652 -13.9493ZM930.377 161.595L930.348 161.572L930.348 161.572L930.377 161.595ZM665.52 217.328L665.511 217.364L665.52 217.364L665.52 217.328ZM511.133 182.201C505.597 171.874 498.953 154.784 497.015 137.079C495.077 119.373 497.847 101.061 511.126 88.2786L511.075 88.2257C497.772 101.031 495.003 119.371 496.942 137.087C498.881 154.803 505.529 171.903 511.068 182.236L511.133 182.201ZM511.126 88.2786C519.419 80.2963 531.255 79.9113 544.615 83.3839C557.975 86.8562 572.849 94.1828 587.206 101.607C601.562 109.03 615.402 116.551 626.691 120.407C632.336 122.335 637.346 123.348 641.467 122.973C645.589 122.598 648.822 120.832 650.903 117.203L650.839 117.166C648.772 120.771 645.563 122.526 641.46 122.9C637.355 123.274 632.356 122.264 626.715 120.337C615.433 116.484 601.599 108.966 587.24 101.542C572.883 94.1179 558.003 86.7874 544.634 83.3127C531.265 79.8382 519.397 80.2161 511.075 88.2257L511.126 88.2786ZM650.903 117.203C653.117 113.344 654.072 108.049 654.389 102.1C654.706 96.1496 654.385 89.54 654.04 83.0505C653.695 76.56 653.327 70.1899 653.551 64.7152C653.775 59.2389 654.591 54.6668 656.608 51.7674L656.547 51.7254C654.518 54.6436 653.702 59.2348 653.478 64.7122C653.254 70.1911 653.622 76.5652 653.967 83.0544C654.311 89.5445 654.633 96.1502 654.316 102.096C653.999 108.042 653.044 113.323 650.839 117.166L650.903 117.203ZM656.608 51.7674C660.642 45.9674 667.99 44.2561 678.74 45.8065C689.488 47.3567 703.624 52.1664 721.212 59.3903L721.24 59.3223C703.651 52.0983 689.509 47.2853 678.75 45.7337C667.993 44.1822 660.606 45.8898 656.547 51.7254L656.608 51.7674ZM721.212 59.3903C725.612 61.1972 728.872 61.7325 731.26 61.238C733.652 60.7428 735.163 59.216 736.067 56.9164C736.969 54.6191 737.265 51.5486 737.23 47.9585C737.195 44.3677 736.827 40.253 736.398 35.8657C735.541 27.0895 734.442 17.2214 735.267 8.25608C736.091 -0.709017 738.84 -8.76382 745.674 -13.92L745.63 -13.9787C738.772 -8.80444 736.019 -0.724821 735.193 8.24934C734.368 17.2232 735.469 27.0993 736.325 35.8729C736.754 40.2605 737.121 44.3721 737.156 47.9592C737.192 51.5469 736.895 54.6058 735.998 56.8895C735.102 59.171 733.608 60.6768 731.245 61.166C728.878 61.656 725.635 61.1274 721.24 59.3223L721.212 59.3903ZM745.674 -13.92C749.102 -16.5064 752.62 -20.7877 756.271 -26.1691C759.922 -31.5511 763.709 -38.0363 767.674 -45.0328C775.606 -59.027 784.253 -75.067 793.968 -88.4282C803.684 -101.79 814.462 -112.466 826.651 -115.739C838.835 -119.01 852.442 -114.888 867.824 -98.6264L867.878 -98.6769C852.485 -114.95 838.851 -119.091 826.632 -115.81C814.416 -112.53 803.626 -101.836 793.909 -88.4715C784.191 -75.1059 775.541 -59.0609 767.61 -45.0691C763.645 -38.0726 759.859 -31.5897 756.21 -26.2104C752.56 -20.8305 749.048 -16.5575 745.63 -13.9787L745.674 -13.92ZM867.824 -98.6264C898.595 -66.0967 924.236 -14.2025 937.179 36.1404C943.65 61.3115 946.946 86.0931 946.122 107.871C945.298 129.649 940.354 148.42 930.348 161.572L930.406 161.617C940.425 148.447 945.371 129.66 946.195 107.874C947.02 86.087 943.722 61.2981 937.25 36.1221C924.305 -14.2293 898.659 -66.1358 867.878 -98.6769L867.824 -98.6264ZM930.348 161.572C922.345 172.092 906.479 180.773 886.003 187.891C865.528 195.009 840.449 200.562 814.029 204.832C761.189 213.372 702.986 216.776 665.519 217.291L665.52 217.364C702.99 216.85 761.196 213.445 814.041 204.905C840.463 200.635 865.546 195.08 886.027 187.96C906.506 180.841 922.39 172.155 930.406 161.617L930.348 161.572ZM665.528 217.292L511.109 182.183L511.093 182.255L665.512 217.363L665.528 217.292Z" fill="#734DFF"/>
<path d="M-32.6819 59.9632C-67.686 56.323 -76.6586 9.46419 -45.4754 -6.84963L19.4787 -40.831C40.5824 -51.8716 66.359 -39.4264 70.8382 -16.0341L78.7969 25.5296C83.2761 48.9219 63.9203 70.0091 40.2308 67.5456L-32.6819 59.9632Z" fill="#734DFF"/>
<rect x="899" width="541" height="127" fill="#734DFF"/>
</g>
<defs>
<clipPath id="clip0_285_105">
<rect width="1440" height="126" fill="white"/>
</clipPath>
</defs>
</svg>
