<svg width="158" height="158" viewBox="0 0 158 158" fill="none" xmlns="http://www.w3.org/2000/svg">
<g clip-path="url(#clip0_143_83)">
<path d="M83.5 78.77C95.99 75.93 128.7 59.65 142.73 45.62C159.51 28.85 160.97 13.59 152.46 5.07999C143.95 -3.43001 128.7 -1.96001 111.92 14.81C97.9 28.83 81.61 61.55 78.77 74.04C75.93 61.55 59.65 28.84 45.62 14.81C28.85 -1.96001 13.59 -3.42001 5.09001 5.08999C-3.41999 13.59 -1.95999 28.85 14.82 45.63C28.84 59.65 61.56 75.94 74.05 78.78C61.56 81.62 28.85 97.9 14.82 111.93C-1.95999 128.69 -3.41999 143.95 5.09001 152.46C13.6 160.97 28.85 159.5 45.63 142.73C59.65 128.71 75.94 95.99 78.78 83.5C81.62 95.99 97.9 128.7 111.93 142.73C128.71 159.5 143.96 160.97 152.47 152.46C160.98 143.95 159.51 128.7 142.74 111.92C128.72 97.9 96 81.61 83.51 78.77H83.5Z" fill="#FE4CB0"/>
</g>
<defs>
<clipPath id="clip0_143_83">
<rect width="157.54" height="157.54" fill="white"/>
</clipPath>
</defs>
</svg>
