<svg width="810" height="810" viewBox="0 0 810 810" fill="none" xmlns="http://www.w3.org/2000/svg">
<g clip-path="url(#clip0_143_85)">
<path d="M605.353 650.859C596.171 584.8 502.643 488.697 446.214 436.018C512.285 475.941 630.253 539.715 696.311 530.533C791.528 517.298 861.534 433 848.988 342.737C836.442 252.475 746.122 190.434 650.883 203.698C584.825 212.88 488.721 306.408 436.042 362.837C475.966 296.766 539.739 178.799 530.558 112.74C517.323 17.523 433.025 -52.4822 342.762 -39.9362C252.499 -27.3903 190.459 62.9289 203.723 158.168C212.905 224.227 306.433 320.33 362.862 373.009C296.79 333.086 178.823 269.312 112.765 278.494C17.5475 291.728 -52.4577 376.027 -39.9117 466.289C-27.3657 556.552 62.9534 618.592 158.193 605.328C224.251 596.147 320.355 502.618 373.034 446.189C333.11 512.261 269.337 630.228 278.518 696.287C291.731 791.533 376.051 861.509 466.284 848.941C556.525 836.424 618.565 746.105 605.353 650.859Z" fill="#FFEA00"/>
</g>
<defs>
<clipPath id="clip0_143_85">
<rect width="577.572" height="577.572" fill="white" transform="translate(460.742 809.033) rotate(-142.913)"/>
</clipPath>
</defs>
</svg>
